<?xml version="1.0" encoding="UTF-8" standalone="no"?>
<!DOCTYPE svg PUBLIC "-//W3C//DTD SVG 1.1//EN"
 "http://www.w3.org/Graphics/SVG/1.1/DTD/svg11.dtd">
<!-- Generated by graphviz version 10.0.1 (20240210.2158)
 -->
<!-- Pages: 1 -->
<svg width="1122pt" height="468pt"
 viewBox="0.00 0.00 1122.31 467.62" xmlns="http://www.w3.org/2000/svg" xmlns:xlink="http://www.w3.org/1999/xlink">
<g id="graph0" class="graph" transform="scale(1 1) rotate(0) translate(36 431.62)">
<polygon fill="azure" stroke="none" points="-36,36 -36,-431.62 1086.31,-431.62 1086.31,36 -36,36"/>
<!-- Country -->
<g id="node1" class="node">
<title>Country</title>
<ellipse fill="#c1cdcd" stroke="black" cx="435.23" cy="-308.29" rx="132.76" ry="87.33"/>
<text text-anchor="middle" x="435.23" y="-352.74" font-family="Times,serif" font-size="14.00">(:Country)</text>
<text text-anchor="start" x="349.35" y="-336.24" font-family="Times,serif" font-size="14.00">* id (id): int | UNIQUE</text>
<text text-anchor="start" x="349.35" y="-319.74" font-family="Times,serif" font-size="14.00">* name (name): str</text>
<text text-anchor="start" x="349.35" y="-303.24" font-family="Times,serif" font-size="14.00">* phoneCode (phone_code): int</text>
<text text-anchor="start" x="349.35" y="-286.74" font-family="Times,serif" font-size="14.00">* capital (capital): str</text>
<text text-anchor="start" x="349.35" y="-270.24" font-family="Times,serif" font-size="14.00">* latitude (latitude): float</text>
<text text-anchor="start" x="349.35" y="-253.74" font-family="Times,serif" font-size="14.00">* longitude (longitude): float</text>
</g>
<!-- Region -->
<g id="node2" class="node">
<title>Region</title>
<ellipse fill="#c1cdcd" stroke="black" cx="132.23" cy="-139.47" rx="132.23" ry="28.99"/>
<text text-anchor="middle" x="132.23" y="-142.67" font-family="Times,serif" font-size="14.00">(:Region)</text>
<text text-anchor="start" x="46.73" y="-126.17" font-family="Times,serif" font-size="14.00">* name (region): str | UNIQUE</text>
</g>
<!-- Country&#45;&gt;Region -->
<g id="edge1" class="edge">
<title>Country&#45;&gt;Region</title>
<path fill="none" stroke="black" stroke-width="2" d="M312.68,-274.29C266.65,-257.9 215.87,-234.65 175.98,-202.97 167.74,-196.42 160.4,-187.92 154.2,-179.3"/>
<polygon fill="black" stroke="black" stroke-width="2" points="157.11,-177.36 148.64,-170.99 151.29,-181.25 157.11,-177.36"/>
<text text-anchor="middle" x="231.35" y="-189.67" font-family="Times,serif" font-size="14.00"> &#160;[:LOCATED_IN] &#160;</text>
</g>
<!-- Subregion -->
<g id="node3" class="node">
<title>Subregion</title>
<ellipse fill="#c1cdcd" stroke="black" cx="216.23" cy="-28.99" rx="145.49" ry="28.99"/>
<text text-anchor="middle" x="216.23" y="-32.19" font-family="Times,serif" font-size="14.00">(:Subregion)</text>
<text text-anchor="start" x="121.35" y="-15.69" font-family="Times,serif" font-size="14.00">* name (subregion): str | UNIQUE</text>
</g>
<!-- Country&#45;&gt;Subregion -->
<g id="edge2" class="edge">
<title>Country&#45;&gt;Subregion</title>
<path fill="none" stroke="black" stroke-width="2" d="M358.59,-236.57C340.08,-216.14 321.92,-192.76 308.98,-168.47 289.07,-131.11 310.66,-110.55 286.23,-75.98 283.46,-72.07 280.25,-68.41 276.75,-64.99"/>
<polygon fill="black" stroke="black" stroke-width="2" points="279.08,-62.37 269.23,-58.49 274.51,-67.67 279.08,-62.37"/>
<text text-anchor="middle" x="352.35" y="-134.42" font-family="Times,serif" font-size="14.00"> &#160;[:PART_OF] &#160;</text>
</g>
<!-- Currency -->
<g id="node4" class="node">
<title>Currency</title>
<ellipse fill="#c1cdcd" stroke="black" cx="571.23" cy="-139.47" rx="167.23" ry="28.99"/>
<text text-anchor="middle" x="571.23" y="-142.67" font-family="Times,serif" font-size="14.00">(:Currency)</text>
<text text-anchor="start" x="460.98" y="-126.17" font-family="Times,serif" font-size="14.00">* name (currency_name): str | UNIQUE</text>
</g>
<!-- Country&#45;&gt;Currency -->
<g id="edge3" class="edge">
<title>Country&#45;&gt;Currency</title>
<path fill="none" stroke="black" stroke-width="2" d="M497.66,-230.72C512.55,-212.45 527.8,-193.74 540.53,-178.13"/>
<polygon fill="black" stroke="black" stroke-width="2" points="542.98,-180.66 546.59,-170.7 537.55,-176.24 542.98,-180.66"/>
<text text-anchor="middle" x="561.6" y="-189.67" font-family="Times,serif" font-size="14.00"> &#160;[:USES] &#160;</text>
</g>
<!-- Timezone -->
<g id="node5" class="node">
<title>Timezone</title>
<ellipse fill="#c1cdcd" stroke="black" cx="903.23" cy="-139.47" rx="147.08" ry="28.99"/>
<text text-anchor="middle" x="903.23" y="-142.67" font-family="Times,serif" font-size="14.00">(:Timezone)</text>
<text text-anchor="start" x="807.23" y="-126.17" font-family="Times,serif" font-size="14.00">* name (timezones): str | UNIQUE</text>
</g>
<!-- Country&#45;&gt;Timezone -->
<g id="edge4" class="edge">
<title>Country&#45;&gt;Timezone</title>
<path fill="none" stroke="black" stroke-width="2" d="M551.52,-265.84C635.37,-235.95 746.49,-196.34 821.2,-169.71"/>
<polygon fill="black" stroke="black" stroke-width="2" points="822.23,-173.06 830.48,-166.41 819.88,-166.47 822.23,-173.06"/>
<text text-anchor="middle" x="864.6" y="-189.67" font-family="Times,serif" font-size="14.00"> &#160;[:SHARES_TIMEZONE_WITH] &#160;</text>
</g>
<!-- Region&#45;&gt;Subregion -->
<g id="edge5" class="edge">
<title>Region&#45;&gt;Subregion</title>
<path fill="none" stroke="black" stroke-width="2" d="M134.64,-110.19C136.7,-98.77 140.5,-85.96 147.48,-75.98 150.19,-72.11 153.34,-68.47 156.77,-65.07"/>
<polygon fill="black" stroke="black" stroke-width="2" points="158.92,-67.84 164.14,-58.62 154.31,-62.57 158.92,-67.84"/>
<text text-anchor="middle" x="217.6" y="-79.18" font-family="Times,serif" font-size="14.00"> &#160;[:HAS_SUBREGION] &#160;</text>
</g>
</g>
</svg>
