<?xml version="1.0" encoding="UTF-8" standalone="no"?>
<!DOCTYPE svg PUBLIC "-//W3C//DTD SVG 1.1//EN"
 "http://www.w3.org/Graphics/SVG/1.1/DTD/svg11.dtd">
<!-- Generated by graphviz version 10.0.1 (20240210.2158)
 -->
<!-- Pages: 1 -->
<svg width="1785pt" height="315pt"
 viewBox="0.00 0.00 1785.39 315.06" xmlns="http://www.w3.org/2000/svg" xmlns:xlink="http://www.w3.org/1999/xlink">
<g id="graph0" class="graph" transform="scale(1 1) rotate(0) translate(4 311.06)">
<polygon fill="white" stroke="none" points="-4,4 -4,-311.06 1781.39,-311.06 1781.39,4 -4,4"/>
<!-- Country -->
<g id="node1" class="node">
<title>Country</title>
<ellipse fill="none" stroke="black" cx="926.94" cy="-243.42" rx="69.65" ry="63.64"/>
<text text-anchor="middle" x="926.94" y="-271.12" font-family="Times,serif" font-size="14.00">Country</text>
<text text-anchor="middle" x="926.94" y="-238.62" font-family="Times,serif" font-size="14.00">properties:</text>
<text text-anchor="middle" x="926.94" y="-222.12" font-family="Times,serif" font-size="14.00">id: id *unique*</text>
<text text-anchor="middle" x="926.94" y="-205.62" font-family="Times,serif" font-size="14.00">name: name</text>
</g>
<!-- Capital -->
<g id="node2" class="node">
<title>Capital</title>
<ellipse fill="none" stroke="black" cx="1319.94" cy="-63.64" rx="129.05" ry="51.97"/>
<text text-anchor="middle" x="1319.94" y="-83.09" font-family="Times,serif" font-size="14.00">Capital</text>
<text text-anchor="middle" x="1319.94" y="-50.59" font-family="Times,serif" font-size="14.00">properties:</text>
<text text-anchor="middle" x="1319.94" y="-34.09" font-family="Times,serif" font-size="14.00">capitalName: capital *unique*</text>
</g>
<!-- Country&#45;&gt;Capital -->
<g id="edge1" class="edge">
<title>Country&#45;&gt;Capital</title>
<path fill="none" stroke="black" d="M991.25,-218.46C1031.25,-203.14 1083.54,-182.34 1128.94,-161.78 1163.49,-146.14 1200.82,-127.54 1233.23,-110.84"/>
<polygon fill="black" stroke="black" points="1234.5,-114.12 1241.78,-106.41 1231.29,-107.9 1234.5,-114.12"/>
<text text-anchor="middle" x="1205.32" y="-148.48" font-family="Times,serif" font-size="14.00">HAS_CAPITAL</text>
</g>
<!-- Currency -->
<g id="node3" class="node">
<title>Currency</title>
<ellipse fill="none" stroke="black" cx="170.94" cy="-63.64" rx="170.94" ry="51.97"/>
<text text-anchor="middle" x="170.94" y="-83.09" font-family="Times,serif" font-size="14.00">Currency</text>
<text text-anchor="middle" x="170.94" y="-50.59" font-family="Times,serif" font-size="14.00">properties:</text>
<text text-anchor="middle" x="170.94" y="-34.09" font-family="Times,serif" font-size="14.00">currencyName: currency_name *unique*</text>
</g>
<!-- Country&#45;&gt;Currency -->
<g id="edge2" class="edge">
<title>Country&#45;&gt;Currency</title>
<path fill="none" stroke="black" d="M857.96,-231.79C749.15,-214.31 531.49,-176.49 350.94,-127.28 330.55,-121.72 309.14,-115.04 288.47,-108.14"/>
<polygon fill="black" stroke="black" points="289.77,-104.88 279.17,-105 287.53,-111.51 289.77,-104.88"/>
<text text-anchor="middle" x="532.57" y="-148.48" font-family="Times,serif" font-size="14.00">USES_CURRENCY</text>
</g>
<!-- Subregion -->
<g id="node5" class="node">
<title>Subregion</title>
<ellipse fill="none" stroke="black" cx="1623.94" cy="-63.64" rx="153.44" ry="51.97"/>
<text text-anchor="middle" x="1623.94" y="-83.09" font-family="Times,serif" font-size="14.00">Subregion</text>
<text text-anchor="middle" x="1623.94" y="-50.59" font-family="Times,serif" font-size="14.00">properties:</text>
<text text-anchor="middle" x="1623.94" y="-34.09" font-family="Times,serif" font-size="14.00">subregionName: subregion *unique*</text>
</g>
<!-- Country&#45;&gt;Subregion -->
<g id="edge3" class="edge">
<title>Country&#45;&gt;Subregion</title>
<path fill="none" stroke="black" d="M995.65,-230.87C1097.65,-212.97 1294.65,-175.51 1457.94,-127.28 1476.89,-121.68 1496.76,-114.96 1515.9,-108.03"/>
<polygon fill="black" stroke="black" points="1516.84,-111.41 1525.03,-104.68 1514.43,-104.84 1516.84,-111.41"/>
<text text-anchor="middle" x="1471.44" y="-148.48" font-family="Times,serif" font-size="14.00">BELONGS_TO_SUBREGION</text>
</g>
<!-- PhoneCode -->
<g id="node6" class="node">
<title>PhoneCode</title>
<ellipse fill="none" stroke="black" cx="503.94" cy="-63.64" rx="144.43" ry="51.97"/>
<text text-anchor="middle" x="503.94" y="-83.09" font-family="Times,serif" font-size="14.00">PhoneCode</text>
<text text-anchor="middle" x="503.94" y="-50.59" font-family="Times,serif" font-size="14.00">properties:</text>
<text text-anchor="middle" x="503.94" y="-34.09" font-family="Times,serif" font-size="14.00">phoneCode: phone_code *unique*</text>
</g>
<!-- Country&#45;&gt;PhoneCode -->
<g id="edge4" class="edge">
<title>Country&#45;&gt;PhoneCode</title>
<path fill="none" stroke="black" d="M863.55,-216.45C825.32,-200.74 775.65,-180.23 731.69,-161.78 690.58,-144.52 645.39,-125.3 606.18,-108.54"/>
<polygon fill="black" stroke="black" points="607.78,-105.42 597.21,-104.7 605.03,-111.85 607.78,-105.42"/>
<text text-anchor="middle" x="793.07" y="-148.48" font-family="Times,serif" font-size="14.00">HAS_PHONE_CODE</text>
</g>
<!-- Timezone -->
<g id="node7" class="node">
<title>Timezone</title>
<ellipse fill="none" stroke="black" cx="795.94" cy="-63.64" rx="129.58" ry="51.97"/>
<text text-anchor="middle" x="795.94" y="-83.09" font-family="Times,serif" font-size="14.00">Timezone</text>
<text text-anchor="middle" x="795.94" y="-50.59" font-family="Times,serif" font-size="14.00">properties:</text>
<text text-anchor="middle" x="795.94" y="-34.09" font-family="Times,serif" font-size="14.00">timezone: timezones *unique*</text>
</g>
<!-- Country&#45;&gt;Timezone -->
<g id="edge5" class="edge">
<title>Country&#45;&gt;Timezone</title>
<path fill="none" stroke="black" d="M888.35,-190.04C872.83,-168.98 854.87,-144.61 838.94,-122.98"/>
<polygon fill="black" stroke="black" points="841.89,-121.1 833.14,-115.12 836.26,-125.25 841.89,-121.1"/>
<text text-anchor="middle" x="917.69" y="-148.48" font-family="Times,serif" font-size="14.00">HAS_TIMEZONE</text>
</g>
<!-- Geolocation -->
<g id="node8" class="node">
<title>Geolocation</title>
<ellipse fill="none" stroke="black" cx="1057.94" cy="-63.64" rx="114.73" ry="63.64"/>
<text text-anchor="middle" x="1057.94" y="-91.34" font-family="Times,serif" font-size="14.00">Geolocation</text>
<text text-anchor="middle" x="1057.94" y="-58.84" font-family="Times,serif" font-size="14.00">properties:</text>
<text text-anchor="middle" x="1057.94" y="-42.34" font-family="Times,serif" font-size="14.00">latitude: latitude *key*</text>
<text text-anchor="middle" x="1057.94" y="-25.84" font-family="Times,serif" font-size="14.00">longitude: longitude *key*</text>
</g>
<!-- Country&#45;&gt;Geolocation -->
<g id="edge6" class="edge">
<title>Country&#45;&gt;Geolocation</title>
<path fill="none" stroke="black" d="M965.54,-190.04C978.96,-171.83 994.21,-151.14 1008.39,-131.89"/>
<polygon fill="black" stroke="black" points="1011.03,-134.21 1014.14,-124.09 1005.39,-130.06 1011.03,-134.21"/>
<text text-anchor="middle" x="1060.44" y="-148.48" font-family="Times,serif" font-size="14.00">HAS_GEOLOCATION</text>
</g>
<!-- Region -->
<g id="node4" class="node">
<title>Region</title>
<ellipse fill="none" stroke="black" cx="1625.94" cy="-243.42" rx="126.93" ry="51.97"/>
<text text-anchor="middle" x="1625.94" y="-262.87" font-family="Times,serif" font-size="14.00">Region</text>
<text text-anchor="middle" x="1625.94" y="-230.37" font-family="Times,serif" font-size="14.00">properties:</text>
<text text-anchor="middle" x="1625.94" y="-213.87" font-family="Times,serif" font-size="14.00">regionName: region *unique*</text>
</g>
<!-- Region&#45;&gt;Subregion -->
<g id="edge7" class="edge">
<title>Region&#45;&gt;Subregion</title>
<path fill="none" stroke="black" d="M1625.36,-191C1625.14,-171.1 1624.88,-148.13 1624.65,-127.28"/>
<polygon fill="black" stroke="black" points="1628.15,-127.42 1624.54,-117.46 1621.15,-127.5 1628.15,-127.42"/>
<text text-anchor="middle" x="1680.44" y="-148.48" font-family="Times,serif" font-size="14.00">HAS_SUBREGION</text>
</g>
</g>
</svg>
