<?xml version="1.0" encoding="UTF-8" standalone="no"?>
<!DOCTYPE svg PUBLIC "-//W3C//DTD SVG 1.1//EN"
 "http://www.w3.org/Graphics/SVG/1.1/DTD/svg11.dtd">
<!-- Generated by graphviz version 10.0.1 (20240210.2158)
 -->
<!-- Pages: 1 -->
<svg width="1775pt" height="338pt"
 viewBox="0.00 0.00 1774.52 338.39" xmlns="http://www.w3.org/2000/svg" xmlns:xlink="http://www.w3.org/1999/xlink">
<g id="graph0" class="graph" transform="scale(1 1) rotate(0) translate(4 334.39)">
<polygon fill="white" stroke="none" points="-4,4 -4,-334.39 1770.52,-334.39 1770.52,4 -4,4"/>
<!-- Country -->
<g id="node1" class="node">
<title>Country</title>
<ellipse fill="none" stroke="black" cx="882.46" cy="-243.42" rx="95.64" ry="86.97"/>
<text text-anchor="middle" x="882.46" y="-287.62" font-family="Times,serif" font-size="14.00">Country</text>
<text text-anchor="middle" x="882.46" y="-255.12" font-family="Times,serif" font-size="14.00">properties:</text>
<text text-anchor="middle" x="882.46" y="-238.62" font-family="Times,serif" font-size="14.00">id: id *unique* *key*</text>
<text text-anchor="middle" x="882.46" y="-222.12" font-family="Times,serif" font-size="14.00">name: name</text>
<text text-anchor="middle" x="882.46" y="-205.62" font-family="Times,serif" font-size="14.00">latitude: latitude</text>
<text text-anchor="middle" x="882.46" y="-189.12" font-family="Times,serif" font-size="14.00">longitude: longitude</text>
</g>
<!-- Capital -->
<g id="node2" class="node">
<title>Capital</title>
<ellipse fill="none" stroke="black" cx="127.46" cy="-51.97" rx="127.46" ry="51.97"/>
<text text-anchor="middle" x="127.46" y="-71.42" font-family="Times,serif" font-size="14.00">Capital</text>
<text text-anchor="middle" x="127.46" y="-38.92" font-family="Times,serif" font-size="14.00">properties:</text>
<text text-anchor="middle" x="127.46" y="-22.42" font-family="Times,serif" font-size="14.00">name: capital *unique* *key*</text>
</g>
<!-- Country&#45;&gt;Capital -->
<g id="edge1" class="edge">
<title>Country&#45;&gt;Capital</title>
<path fill="none" stroke="black" d="M788.52,-225.49C666.51,-202.57 447.48,-158.22 264.46,-103.94 252.91,-100.52 240.93,-96.61 229.08,-92.52"/>
<polygon fill="black" stroke="black" points="230.28,-89.23 219.68,-89.22 227.96,-95.83 230.28,-89.23"/>
<text text-anchor="middle" x="426.83" y="-125.14" font-family="Times,serif" font-size="14.00">HAS_CAPITAL</text>
</g>
<!-- Currency -->
<g id="node3" class="node">
<title>Currency</title>
<ellipse fill="none" stroke="black" cx="434.46" cy="-51.97" rx="161.4" ry="51.97"/>
<text text-anchor="middle" x="434.46" y="-71.42" font-family="Times,serif" font-size="14.00">Currency</text>
<text text-anchor="middle" x="434.46" y="-38.92" font-family="Times,serif" font-size="14.00">properties:</text>
<text text-anchor="middle" x="434.46" y="-22.42" font-family="Times,serif" font-size="14.00">name: currency_name *unique* *key*</text>
</g>
<!-- Country&#45;&gt;Currency -->
<g id="edge2" class="edge">
<title>Country&#45;&gt;Currency</title>
<path fill="none" stroke="black" d="M795.81,-205.78C723.27,-175.1 619.42,-131.19 541.66,-98.3"/>
<polygon fill="black" stroke="black" points="543.31,-95.2 532.74,-94.53 540.58,-101.65 543.31,-95.2"/>
<text text-anchor="middle" x="689.08" y="-125.14" font-family="Times,serif" font-size="14.00">USES_CURRENCY</text>
</g>
<!-- Region -->
<g id="node4" class="node">
<title>Region</title>
<ellipse fill="none" stroke="black" cx="740.46" cy="-51.97" rx="126.4" ry="51.97"/>
<text text-anchor="middle" x="740.46" y="-71.42" font-family="Times,serif" font-size="14.00">Region</text>
<text text-anchor="middle" x="740.46" y="-38.92" font-family="Times,serif" font-size="14.00">properties:</text>
<text text-anchor="middle" x="740.46" y="-22.42" font-family="Times,serif" font-size="14.00">name: region *unique* *key*</text>
</g>
<!-- Country&#45;&gt;Region -->
<g id="edge3" class="edge">
<title>Country&#45;&gt;Region</title>
<path fill="none" stroke="black" d="M828.97,-171.07C814.18,-151.33 798.3,-130.14 784.13,-111.24"/>
<polygon fill="black" stroke="black" points="787.03,-109.28 778.24,-103.38 781.43,-113.48 787.03,-109.28"/>
<text text-anchor="middle" x="875.83" y="-125.14" font-family="Times,serif" font-size="14.00">BELONGS_TO_REGION</text>
</g>
<!-- Subregion -->
<g id="node5" class="node">
<title>Subregion</title>
<ellipse fill="none" stroke="black" cx="1024.46" cy="-51.97" rx="139.65" ry="51.97"/>
<text text-anchor="middle" x="1024.46" y="-71.42" font-family="Times,serif" font-size="14.00">Subregion</text>
<text text-anchor="middle" x="1024.46" y="-38.92" font-family="Times,serif" font-size="14.00">properties:</text>
<text text-anchor="middle" x="1024.46" y="-22.42" font-family="Times,serif" font-size="14.00">name: subregion *unique* *key*</text>
</g>
<!-- Country&#45;&gt;Subregion -->
<g id="edge4" class="edge">
<title>Country&#45;&gt;Subregion</title>
<path fill="none" stroke="black" d="M935.94,-171.07C950.67,-151.42 966.47,-130.34 980.59,-111.5"/>
<polygon fill="black" stroke="black" points="983.26,-113.76 986.46,-103.66 977.66,-109.57 983.26,-113.76"/>
<text text-anchor="middle" x="1055.96" y="-125.14" font-family="Times,serif" font-size="14.00">BELONGS_TO_SUBREGION</text>
</g>
<!-- PhoneCode -->
<g id="node6" class="node">
<title>PhoneCode</title>
<ellipse fill="none" stroke="black" cx="1327.46" cy="-51.97" rx="144.96" ry="51.97"/>
<text text-anchor="middle" x="1327.46" y="-71.42" font-family="Times,serif" font-size="14.00">PhoneCode</text>
<text text-anchor="middle" x="1327.46" y="-38.92" font-family="Times,serif" font-size="14.00">properties:</text>
<text text-anchor="middle" x="1327.46" y="-22.42" font-family="Times,serif" font-size="14.00">code: phone_code *unique* *key*</text>
</g>
<!-- Country&#45;&gt;PhoneCode -->
<g id="edge5" class="edge">
<title>Country&#45;&gt;PhoneCode</title>
<path fill="none" stroke="black" d="M970.69,-209.12C1022.01,-189.36 1087.76,-163.37 1145.46,-138.44 1173.85,-126.18 1204.4,-112.16 1232.2,-99.08"/>
<polygon fill="black" stroke="black" points="1233.4,-102.38 1240.95,-94.95 1230.41,-96.05 1233.4,-102.38"/>
<text text-anchor="middle" x="1242.58" y="-125.14" font-family="Times,serif" font-size="14.00">HAS_PHONE_CODE</text>
</g>
<!-- Timezone -->
<g id="node7" class="node">
<title>Timezone</title>
<ellipse fill="none" stroke="black" cx="1628.46" cy="-51.97" rx="138.06" ry="51.97"/>
<text text-anchor="middle" x="1628.46" y="-71.42" font-family="Times,serif" font-size="14.00">Timezone</text>
<text text-anchor="middle" x="1628.46" y="-38.92" font-family="Times,serif" font-size="14.00">properties:</text>
<text text-anchor="middle" x="1628.46" y="-22.42" font-family="Times,serif" font-size="14.00">zone: timezones *unique* *key*</text>
</g>
<!-- Country&#45;&gt;Timezone -->
<g id="edge6" class="edge">
<title>Country&#45;&gt;Timezone</title>
<path fill="none" stroke="black" d="M976.11,-224C1094.68,-199.94 1304.79,-154.84 1481.46,-103.94 1493.83,-100.38 1506.68,-96.38 1519.42,-92.22"/>
<polygon fill="black" stroke="black" points="1520.24,-95.64 1528.64,-89.18 1518.05,-88.99 1520.24,-95.64"/>
<text text-anchor="middle" x="1453.21" y="-125.14" font-family="Times,serif" font-size="14.00">HAS_TIMEZONE</text>
</g>
</g>
</svg>
