<?xml version="1.0" encoding="UTF-8" standalone="no"?>
<!DOCTYPE svg PUBLIC "-//W3C//DTD SVG 1.1//EN"
 "http://www.w3.org/Graphics/SVG/1.1/DTD/svg11.dtd">
<!-- Generated by graphviz version 10.0.1 (20240210.2158)
 -->
<!-- Pages: 1 -->
<svg width="1286pt" height="338pt"
 viewBox="0.00 0.00 1285.82 338.39" xmlns="http://www.w3.org/2000/svg" xmlns:xlink="http://www.w3.org/1999/xlink">
<g id="graph0" class="graph" transform="scale(1 1) rotate(0) translate(4 334.39)">
<polygon fill="white" stroke="none" points="-4,4 -4,-334.39 1281.82,-334.39 1281.82,4 -4,4"/>
<!-- Country -->
<g id="node1" class="node">
<title>Country</title>
<ellipse fill="none" stroke="black" cx="656.41" cy="-243.42" rx="88.74" ry="86.97"/>
<text text-anchor="middle" x="656.41" y="-287.62" font-family="Times,serif" font-size="14.00">Country</text>
<text text-anchor="middle" x="656.41" y="-255.12" font-family="Times,serif" font-size="14.00">properties:</text>
<text text-anchor="middle" x="656.41" y="-238.62" font-family="Times,serif" font-size="14.00">id: id *unique*</text>
<text text-anchor="middle" x="656.41" y="-222.12" font-family="Times,serif" font-size="14.00">name: name</text>
<text text-anchor="middle" x="656.41" y="-205.62" font-family="Times,serif" font-size="14.00">latitude: latitude</text>
<text text-anchor="middle" x="656.41" y="-189.12" font-family="Times,serif" font-size="14.00">longitude: longitude</text>
</g>
<!-- Capital -->
<g id="node2" class="node">
<title>Capital</title>
<ellipse fill="none" stroke="black" cx="888.41" cy="-51.97" rx="101.47" ry="51.97"/>
<text text-anchor="middle" x="888.41" y="-71.42" font-family="Times,serif" font-size="14.00">Capital</text>
<text text-anchor="middle" x="888.41" y="-38.92" font-family="Times,serif" font-size="14.00">properties:</text>
<text text-anchor="middle" x="888.41" y="-22.42" font-family="Times,serif" font-size="14.00">name: capital *unique*</text>
</g>
<!-- Country&#45;&gt;Capital -->
<g id="edge1" class="edge">
<title>Country&#45;&gt;Capital</title>
<path fill="none" stroke="black" d="M724.45,-186.86C756.72,-160.51 794.99,-129.26 826.44,-103.58"/>
<polygon fill="black" stroke="black" points="828.41,-106.48 833.94,-97.45 823.99,-101.06 828.41,-106.48"/>
<text text-anchor="middle" x="844.79" y="-125.14" font-family="Times,serif" font-size="14.00">HAS_CAPITAL</text>
</g>
<!-- Currency -->
<g id="node3" class="node">
<title>Currency</title>
<ellipse fill="none" stroke="black" cx="135.41" cy="-51.97" rx="135.41" ry="51.97"/>
<text text-anchor="middle" x="135.41" y="-71.42" font-family="Times,serif" font-size="14.00">Currency</text>
<text text-anchor="middle" x="135.41" y="-38.92" font-family="Times,serif" font-size="14.00">properties:</text>
<text text-anchor="middle" x="135.41" y="-22.42" font-family="Times,serif" font-size="14.00">name: currency_name *unique*</text>
</g>
<!-- Country&#45;&gt;Currency -->
<g id="edge2" class="edge">
<title>Country&#45;&gt;Currency</title>
<path fill="none" stroke="black" d="M573.28,-212.19C483.89,-179.69 341.42,-127.88 243.41,-92.24"/>
<polygon fill="black" stroke="black" points="244.9,-89.06 234.3,-88.93 242.51,-95.64 244.9,-89.06"/>
<text text-anchor="middle" x="422.04" y="-125.14" font-family="Times,serif" font-size="14.00">USES_CURRENCY</text>
</g>
<!-- Subregion -->
<g id="node5" class="node">
<title>Subregion</title>
<ellipse fill="none" stroke="black" cx="1158.41" cy="-51.97" rx="113.67" ry="51.97"/>
<text text-anchor="middle" x="1158.41" y="-71.42" font-family="Times,serif" font-size="14.00">Subregion</text>
<text text-anchor="middle" x="1158.41" y="-38.92" font-family="Times,serif" font-size="14.00">properties:</text>
<text text-anchor="middle" x="1158.41" y="-22.42" font-family="Times,serif" font-size="14.00">name: subregion *unique*</text>
</g>
<!-- Country&#45;&gt;Subregion -->
<g id="edge3" class="edge">
<title>Country&#45;&gt;Subregion</title>
<path fill="none" stroke="black" d="M739.31,-211.14C827.66,-177.79 967.45,-125.04 1061,-89.74"/>
<polygon fill="black" stroke="black" points="1062.06,-93.07 1070.18,-86.27 1059.59,-86.52 1062.06,-93.07"/>
<text text-anchor="middle" x="1051.91" y="-125.14" font-family="Times,serif" font-size="14.00">BELONGS_TO_SUBREGION</text>
</g>
<!-- PhoneCode -->
<g id="node6" class="node">
<title>PhoneCode</title>
<ellipse fill="none" stroke="black" cx="407.41" cy="-51.97" rx="118.97" ry="51.97"/>
<text text-anchor="middle" x="407.41" y="-71.42" font-family="Times,serif" font-size="14.00">PhoneCode</text>
<text text-anchor="middle" x="407.41" y="-38.92" font-family="Times,serif" font-size="14.00">properties:</text>
<text text-anchor="middle" x="407.41" y="-22.42" font-family="Times,serif" font-size="14.00">code: phone_code *unique*</text>
</g>
<!-- Country&#45;&gt;PhoneCode -->
<g id="edge4" class="edge">
<title>Country&#45;&gt;PhoneCode</title>
<path fill="none" stroke="black" d="M586.72,-189.4C551.85,-162.87 509.82,-130.89 475.22,-104.56"/>
<polygon fill="black" stroke="black" points="477.41,-101.83 467.33,-98.56 473.17,-107.4 477.41,-101.83"/>
<text text-anchor="middle" x="577.54" y="-125.14" font-family="Times,serif" font-size="14.00">HAS_PHONE_CODE</text>
</g>
<!-- Timezone -->
<g id="node7" class="node">
<title>Timezone</title>
<ellipse fill="none" stroke="black" cx="656.41" cy="-51.97" rx="112.08" ry="51.97"/>
<text text-anchor="middle" x="656.41" y="-71.42" font-family="Times,serif" font-size="14.00">Timezone</text>
<text text-anchor="middle" x="656.41" y="-38.92" font-family="Times,serif" font-size="14.00">properties:</text>
<text text-anchor="middle" x="656.41" y="-22.42" font-family="Times,serif" font-size="14.00">zone: timezones *unique*</text>
</g>
<!-- Country&#45;&gt;Timezone -->
<g id="edge5" class="edge">
<title>Country&#45;&gt;Timezone</title>
<path fill="none" stroke="black" d="M656.41,-156.01C656.41,-142.35 656.41,-128.46 656.41,-115.48"/>
<polygon fill="black" stroke="black" points="659.91,-115.85 656.41,-105.85 652.91,-115.85 659.91,-115.85"/>
<text text-anchor="middle" x="708.16" y="-125.14" font-family="Times,serif" font-size="14.00">HAS_TIMEZONE</text>
</g>
<!-- Region -->
<g id="node4" class="node">
<title>Region</title>
<ellipse fill="none" stroke="black" cx="1177.41" cy="-243.42" rx="100.41" ry="51.97"/>
<text text-anchor="middle" x="1177.41" y="-262.87" font-family="Times,serif" font-size="14.00">Region</text>
<text text-anchor="middle" x="1177.41" y="-230.37" font-family="Times,serif" font-size="14.00">properties:</text>
<text text-anchor="middle" x="1177.41" y="-213.87" font-family="Times,serif" font-size="14.00">name: region *unique*</text>
</g>
<!-- Region&#45;&gt;Subregion -->
<g id="edge6" class="edge">
<title>Region&#45;&gt;Subregion</title>
<path fill="none" stroke="black" d="M1172.27,-191.15C1169.94,-167.88 1167.15,-140.14 1164.7,-115.64"/>
<polygon fill="black" stroke="black" points="1168.19,-115.39 1163.71,-105.79 1161.22,-116.09 1168.19,-115.39"/>
<text text-anchor="middle" x="1221.91" y="-125.14" font-family="Times,serif" font-size="14.00">HAS_SUBREGION</text>
</g>
</g>
</svg>
