<?xml version="1.0" encoding="UTF-8" standalone="no"?>
<!DOCTYPE svg PUBLIC "-//W3C//DTD SVG 1.1//EN"
 "http://www.w3.org/Graphics/SVG/1.1/DTD/svg11.dtd">
<!-- Generated by graphviz version 10.0.1 (20240210.2158)
 -->
<!-- Pages: 1 -->
<svg width="1407pt" height="444pt"
 viewBox="0.00 0.00 1406.52 444.29" xmlns="http://www.w3.org/2000/svg" xmlns:xlink="http://www.w3.org/1999/xlink">
<g id="graph0" class="graph" transform="scale(1 1) rotate(0) translate(36 408.29)">
<polygon fill="azure" stroke="none" points="-36,36 -36,-408.29 1370.52,-408.29 1370.52,36 -36,36"/>
<!-- Country -->
<g id="node1" class="node">
<title>Country</title>
<ellipse fill="#c1cdcd" stroke="black" cx="571.23" cy="-296.63" rx="132.76" ry="75.66"/>
<text text-anchor="middle" x="571.23" y="-332.83" font-family="Times,serif" font-size="14.00">(:Country)</text>
<text text-anchor="start" x="485.35" y="-316.33" font-family="Times,serif" font-size="14.00">* id (id): int | UNIQUE</text>
<text text-anchor="start" x="485.35" y="-299.83" font-family="Times,serif" font-size="14.00">* name (name): str</text>
<text text-anchor="start" x="485.35" y="-283.33" font-family="Times,serif" font-size="14.00">* phoneCode (phone_code): int</text>
<text text-anchor="start" x="485.35" y="-266.83" font-family="Times,serif" font-size="14.00">* latitude (latitude): float</text>
<text text-anchor="start" x="485.35" y="-250.33" font-family="Times,serif" font-size="14.00">* longitude (longitude): float</text>
</g>
<!-- Region -->
<g id="node2" class="node">
<title>Region</title>
<ellipse fill="#c1cdcd" stroke="black" cx="132.23" cy="-139.47" rx="132.23" ry="28.99"/>
<text text-anchor="middle" x="132.23" y="-142.67" font-family="Times,serif" font-size="14.00">(:Region)</text>
<text text-anchor="start" x="46.73" y="-126.17" font-family="Times,serif" font-size="14.00">* name (region): str | UNIQUE</text>
</g>
<!-- Country&#45;&gt;Region -->
<g id="edge1" class="edge">
<title>Country&#45;&gt;Region</title>
<path fill="none" stroke="black" stroke-width="2" d="M438.93,-288.4C357.25,-278.48 253.6,-255.52 175.98,-202.97 167.01,-196.9 159.31,-188.33 152.98,-179.48"/>
<polygon fill="black" stroke="black" stroke-width="2" points="156,-177.69 147.6,-171.23 150.13,-181.52 156,-177.69"/>
<text text-anchor="middle" x="231.35" y="-189.67" font-family="Times,serif" font-size="14.00"> &#160;[:LOCATED_IN] &#160;</text>
</g>
<!-- Subregion -->
<g id="node3" class="node">
<title>Subregion</title>
<ellipse fill="#c1cdcd" stroke="black" cx="216.23" cy="-28.99" rx="145.49" ry="28.99"/>
<text text-anchor="middle" x="216.23" y="-32.19" font-family="Times,serif" font-size="14.00">(:Subregion)</text>
<text text-anchor="start" x="121.35" y="-15.69" font-family="Times,serif" font-size="14.00">* name (subregion): str | UNIQUE</text>
</g>
<!-- Country&#45;&gt;Subregion -->
<g id="edge2" class="edge">
<title>Country&#45;&gt;Subregion</title>
<path fill="none" stroke="black" stroke-width="2" d="M451.83,-262.92C400.99,-243.3 345.18,-213.21 308.98,-168.47 282.35,-135.56 310.66,-110.55 286.23,-75.98 283.46,-72.07 280.25,-68.41 276.75,-64.99"/>
<polygon fill="black" stroke="black" stroke-width="2" points="279.08,-62.37 269.23,-58.49 274.51,-67.67 279.08,-62.37"/>
<text text-anchor="middle" x="352.35" y="-134.42" font-family="Times,serif" font-size="14.00"> &#160;[:PART_OF] &#160;</text>
</g>
<!-- Currency -->
<g id="node4" class="node">
<title>Currency</title>
<ellipse fill="#c1cdcd" stroke="black" cx="571.23" cy="-139.47" rx="167.23" ry="28.99"/>
<text text-anchor="middle" x="571.23" y="-142.67" font-family="Times,serif" font-size="14.00">(:Currency)</text>
<text text-anchor="start" x="460.98" y="-126.17" font-family="Times,serif" font-size="14.00">* name (currency_name): str | UNIQUE</text>
</g>
<!-- Country&#45;&gt;Currency -->
<g id="edge3" class="edge">
<title>Country&#45;&gt;Currency</title>
<path fill="none" stroke="black" stroke-width="2" d="M571.23,-220.78C571.23,-207.26 571.23,-193.64 571.23,-181.55"/>
<polygon fill="black" stroke="black" stroke-width="2" points="574.73,-181.67 571.23,-171.67 567.73,-181.67 574.73,-181.67"/>
<text text-anchor="middle" x="601.6" y="-189.67" font-family="Times,serif" font-size="14.00"> &#160;[:USES] &#160;</text>
</g>
<!-- Timezone -->
<g id="node5" class="node">
<title>Timezone</title>
<ellipse fill="#c1cdcd" stroke="black" cx="903.23" cy="-139.47" rx="147.08" ry="28.99"/>
<text text-anchor="middle" x="903.23" y="-142.67" font-family="Times,serif" font-size="14.00">(:Timezone)</text>
<text text-anchor="start" x="807.23" y="-126.17" font-family="Times,serif" font-size="14.00">* name (timezones): str | UNIQUE</text>
</g>
<!-- Country&#45;&gt;Timezone -->
<g id="edge4" class="edge">
<title>Country&#45;&gt;Timezone</title>
<path fill="none" stroke="black" stroke-width="2" d="M673.1,-248.02C725.99,-223.3 789.14,-193.79 835.9,-171.94"/>
<polygon fill="black" stroke="black" stroke-width="2" points="837.1,-175.24 844.68,-167.84 834.14,-168.9 837.1,-175.24"/>
<text text-anchor="middle" x="895.6" y="-189.67" font-family="Times,serif" font-size="14.00"> &#160;[:SHARES_TIMEZONE_WITH] &#160;</text>
</g>
<!-- Capital -->
<g id="node6" class="node">
<title>Capital</title>
<ellipse fill="#c1cdcd" stroke="black" cx="1201.23" cy="-139.47" rx="133.29" ry="28.99"/>
<text text-anchor="middle" x="1201.23" y="-142.67" font-family="Times,serif" font-size="14.00">(:Capital)</text>
<text text-anchor="start" x="1114.98" y="-126.17" font-family="Times,serif" font-size="14.00">* name (capital): str | UNIQUE</text>
</g>
<!-- Country&#45;&gt;Capital -->
<g id="edge6" class="edge">
<title>Country&#45;&gt;Capital</title>
<path fill="none" stroke="black" stroke-width="2" d="M696.92,-271.41C782.57,-254.17 898.3,-229.45 999.23,-202.97 1038.47,-192.67 1081.47,-179.62 1117.68,-168.11"/>
<polygon fill="black" stroke="black" stroke-width="2" points="1118.34,-171.57 1126.8,-165.19 1116.2,-164.9 1118.34,-171.57"/>
<text text-anchor="middle" x="1113.48" y="-189.67" font-family="Times,serif" font-size="14.00"> &#160;[:HAS_CAPITAL] &#160;</text>
</g>
<!-- Region&#45;&gt;Subregion -->
<g id="edge5" class="edge">
<title>Region&#45;&gt;Subregion</title>
<path fill="none" stroke="black" stroke-width="2" d="M134.64,-110.19C136.7,-98.77 140.5,-85.96 147.48,-75.98 150.19,-72.11 153.34,-68.47 156.77,-65.07"/>
<polygon fill="black" stroke="black" stroke-width="2" points="158.92,-67.84 164.14,-58.62 154.31,-62.57 158.92,-67.84"/>
<text text-anchor="middle" x="217.6" y="-79.18" font-family="Times,serif" font-size="14.00"> &#160;[:HAS_SUBREGION] &#160;</text>
</g>
</g>
</svg>
