<?xml version="1.0" encoding="UTF-8" standalone="no"?>
<!DOCTYPE svg PUBLIC "-//W3C//DTD SVG 1.1//EN"
 "http://www.w3.org/Graphics/SVG/1.1/DTD/svg11.dtd">
<!-- Generated by graphviz version 10.0.1 (20240210.2158)
 -->
<!-- Pages: 1 -->
<svg width="932pt" height="385pt"
 viewBox="0.00 0.00 932.05 385.06" xmlns="http://www.w3.org/2000/svg" xmlns:xlink="http://www.w3.org/1999/xlink">
<g id="graph0" class="graph" transform="scale(1 1) rotate(0) translate(4 381.06)">
<polygon fill="white" stroke="none" points="-4,4 -4,-381.06 928.05,-381.06 928.05,4 -4,4"/>
<!-- Country -->
<g id="node1" class="node">
<title>Country</title>
<ellipse fill="none" stroke="black" cx="492.94" cy="-266.75" rx="106.24" ry="110.31"/>
<text text-anchor="middle" x="492.94" y="-327.45" font-family="Times,serif" font-size="14.00">Country</text>
<text text-anchor="middle" x="492.94" y="-294.95" font-family="Times,serif" font-size="14.00">properties:</text>
<text text-anchor="middle" x="492.94" y="-278.45" font-family="Times,serif" font-size="14.00">id: id *unique*</text>
<text text-anchor="middle" x="492.94" y="-261.95" font-family="Times,serif" font-size="14.00">name: name</text>
<text text-anchor="middle" x="492.94" y="-245.45" font-family="Times,serif" font-size="14.00">phoneCode: phone_code</text>
<text text-anchor="middle" x="492.94" y="-228.95" font-family="Times,serif" font-size="14.00">capital: capital</text>
<text text-anchor="middle" x="492.94" y="-212.45" font-family="Times,serif" font-size="14.00">latitude: latitude</text>
<text text-anchor="middle" x="492.94" y="-195.95" font-family="Times,serif" font-size="14.00">longitude: longitude</text>
</g>
<!-- Subregion -->
<g id="node2" class="node">
<title>Subregion</title>
<ellipse fill="none" stroke="black" cx="793.94" cy="-51.97" rx="130.11" ry="51.97"/>
<text text-anchor="middle" x="793.94" y="-71.42" font-family="Times,serif" font-size="14.00">Subregion</text>
<text text-anchor="middle" x="793.94" y="-38.92" font-family="Times,serif" font-size="14.00">properties:</text>
<text text-anchor="middle" x="793.94" y="-22.42" font-family="Times,serif" font-size="14.00">subregion: subregion *unique*</text>
</g>
<!-- Country&#45;&gt;Subregion -->
<g id="edge1" class="edge">
<title>Country&#45;&gt;Subregion</title>
<path fill="none" stroke="black" d="M559.91,-181.05C579.56,-159.83 602.2,-138.43 625.94,-121.94 643.59,-109.69 663.73,-99.08 683.81,-90.1"/>
<polygon fill="black" stroke="black" points="685.12,-93.34 692.9,-86.15 682.33,-86.92 685.12,-93.34"/>
<text text-anchor="middle" x="711.44" y="-125.14" font-family="Times,serif" font-size="14.00">BELONGS_TO_SUBREGION</text>
</g>
<!-- Currency -->
<g id="node3" class="node">
<title>Currency</title>
<ellipse fill="none" stroke="black" cx="170.94" cy="-51.97" rx="170.94" ry="51.97"/>
<text text-anchor="middle" x="170.94" y="-71.42" font-family="Times,serif" font-size="14.00">Currency</text>
<text text-anchor="middle" x="170.94" y="-38.92" font-family="Times,serif" font-size="14.00">properties:</text>
<text text-anchor="middle" x="170.94" y="-22.42" font-family="Times,serif" font-size="14.00">currencyName: currency_name *unique*</text>
</g>
<!-- Country&#45;&gt;Currency -->
<g id="edge2" class="edge">
<title>Country&#45;&gt;Currency</title>
<path fill="none" stroke="black" d="M403.68,-206.76C355.88,-175.18 297.48,-136.59 251.14,-105.97"/>
<polygon fill="black" stroke="black" points="253.27,-103.18 243,-100.59 249.41,-109.02 253.27,-103.18"/>
<text text-anchor="middle" x="350.57" y="-125.14" font-family="Times,serif" font-size="14.00">USES_CURRENCY</text>
</g>
<!-- Timezone -->
<g id="node4" class="node">
<title>Timezone</title>
<ellipse fill="none" stroke="black" cx="492.94" cy="-51.97" rx="133.29" ry="51.97"/>
<text text-anchor="middle" x="492.94" y="-71.42" font-family="Times,serif" font-size="14.00">Timezone</text>
<text text-anchor="middle" x="492.94" y="-38.92" font-family="Times,serif" font-size="14.00">properties:</text>
<text text-anchor="middle" x="492.94" y="-22.42" font-family="Times,serif" font-size="14.00">timezones: timezones *unique*</text>
</g>
<!-- Country&#45;&gt;Timezone -->
<g id="edge3" class="edge">
<title>Country&#45;&gt;Timezone</title>
<path fill="none" stroke="black" d="M492.94,-156.25C492.94,-142.37 492.94,-128.56 492.94,-115.77"/>
<polygon fill="black" stroke="black" points="496.44,-115.85 492.94,-105.85 489.44,-115.85 496.44,-115.85"/>
<text text-anchor="middle" x="544.69" y="-125.14" font-family="Times,serif" font-size="14.00">HAS_TIMEZONE</text>
</g>
<!-- Region -->
<g id="node5" class="node">
<title>Region</title>
<ellipse fill="none" stroke="black" cx="813.94" cy="-266.75" rx="103.59" ry="51.97"/>
<text text-anchor="middle" x="813.94" y="-286.2" font-family="Times,serif" font-size="14.00">Region</text>
<text text-anchor="middle" x="813.94" y="-253.7" font-family="Times,serif" font-size="14.00">properties:</text>
<text text-anchor="middle" x="813.94" y="-237.2" font-family="Times,serif" font-size="14.00">region: region *unique*</text>
</g>
<!-- Region&#45;&gt;Subregion -->
<g id="edge4" class="edge">
<title>Region&#45;&gt;Subregion</title>
<path fill="none" stroke="black" d="M809.13,-214.52C806.33,-184.73 802.78,-146.96 799.81,-115.44"/>
<polygon fill="black" stroke="black" points="803.31,-115.27 798.89,-105.64 796.34,-115.92 803.31,-115.27"/>
<text text-anchor="middle" x="856.44" y="-125.14" font-family="Times,serif" font-size="14.00">HAS_SUBREGION</text>
</g>
</g>
</svg>
