<?xml version="1.0" encoding="UTF-8" standalone="no"?>
<!DOCTYPE svg PUBLIC "-//W3C//DTD SVG 1.1//EN"
 "http://www.w3.org/Graphics/SVG/1.1/DTD/svg11.dtd">
<!-- Generated by graphviz version 10.0.1 (20240210.2158)
 -->
<!-- Pages: 1 -->
<svg width="1077pt" height="542pt"
 viewBox="0.00 0.00 1076.88 541.51" xmlns="http://www.w3.org/2000/svg" xmlns:xlink="http://www.w3.org/1999/xlink">
<g id="graph0" class="graph" transform="scale(1 1) rotate(0) translate(4 537.51)">
<polygon fill="white" stroke="none" points="-4,4 -4,-537.51 1072.88,-537.51 1072.88,4 -4,4"/>
<!-- Country -->
<g id="node1" class="node">
<title>Country</title>
<ellipse fill="none" stroke="black" cx="433.59" cy="-423.2" rx="106.24" ry="110.31"/>
<text text-anchor="middle" x="433.59" y="-483.9" font-family="Times,serif" font-size="14.00">Country</text>
<text text-anchor="middle" x="433.59" y="-451.4" font-family="Times,serif" font-size="14.00">properties:</text>
<text text-anchor="middle" x="433.59" y="-434.9" font-family="Times,serif" font-size="14.00">id: id *unique*</text>
<text text-anchor="middle" x="433.59" y="-418.4" font-family="Times,serif" font-size="14.00">name: name</text>
<text text-anchor="middle" x="433.59" y="-401.9" font-family="Times,serif" font-size="14.00">phoneCode: phone_code</text>
<text text-anchor="middle" x="433.59" y="-385.4" font-family="Times,serif" font-size="14.00">capital: capital</text>
<text text-anchor="middle" x="433.59" y="-368.9" font-family="Times,serif" font-size="14.00">latitude: latitude</text>
<text text-anchor="middle" x="433.59" y="-352.4" font-family="Times,serif" font-size="14.00">longitude: longitude</text>
</g>
<!-- Region -->
<g id="node2" class="node">
<title>Region</title>
<ellipse fill="none" stroke="black" cx="103.59" cy="-208.42" rx="103.59" ry="51.97"/>
<text text-anchor="middle" x="103.59" y="-227.87" font-family="Times,serif" font-size="14.00">Region</text>
<text text-anchor="middle" x="103.59" y="-195.37" font-family="Times,serif" font-size="14.00">properties:</text>
<text text-anchor="middle" x="103.59" y="-178.87" font-family="Times,serif" font-size="14.00">region: region *unique*</text>
</g>
<!-- Country&#45;&gt;Region -->
<g id="edge1" class="edge">
<title>Country&#45;&gt;Region</title>
<path fill="none" stroke="black" d="M327.42,-413.46C248.84,-400.79 146.79,-369.91 94.84,-294.89 89.94,-287.81 87.69,-279.58 87.15,-271.08"/>
<polygon fill="black" stroke="black" points="90.65,-271.39 87.32,-261.33 83.65,-271.27 90.65,-271.39"/>
<text text-anchor="middle" x="167.97" y="-281.59" font-family="Times,serif" font-size="14.00">BELONGS_TO_REGION</text>
</g>
<!-- Subregion -->
<g id="node3" class="node">
<title>Subregion</title>
<ellipse fill="none" stroke="black" cx="178.59" cy="-51.97" rx="130.11" ry="51.97"/>
<text text-anchor="middle" x="178.59" y="-71.42" font-family="Times,serif" font-size="14.00">Subregion</text>
<text text-anchor="middle" x="178.59" y="-38.92" font-family="Times,serif" font-size="14.00">properties:</text>
<text text-anchor="middle" x="178.59" y="-22.42" font-family="Times,serif" font-size="14.00">subregion: subregion *unique*</text>
</g>
<!-- Country&#45;&gt;Subregion -->
<g id="edge2" class="edge">
<title>Country&#45;&gt;Subregion</title>
<path fill="none" stroke="black" d="M346.77,-359.65C315.44,-332.63 282.84,-298.46 262.59,-260.39 233.3,-205.32 266.41,-178.26 239.59,-121.94 237.67,-117.92 235.45,-113.95 233.01,-110.08"/>
<polygon fill="black" stroke="black" points="235.95,-108.18 227.41,-101.91 230.18,-112.14 235.95,-108.18"/>
<text text-anchor="middle" x="348.09" y="-203.37" font-family="Times,serif" font-size="14.00">BELONGS_TO_SUBREGION</text>
</g>
<!-- Currency -->
<g id="node4" class="node">
<title>Currency</title>
<ellipse fill="none" stroke="black" cx="613.59" cy="-208.42" rx="170.94" ry="51.97"/>
<text text-anchor="middle" x="613.59" y="-227.87" font-family="Times,serif" font-size="14.00">Currency</text>
<text text-anchor="middle" x="613.59" y="-195.37" font-family="Times,serif" font-size="14.00">properties:</text>
<text text-anchor="middle" x="613.59" y="-178.87" font-family="Times,serif" font-size="14.00">currencyName: currency_name *unique*</text>
</g>
<!-- Country&#45;&gt;Currency -->
<g id="edge3" class="edge">
<title>Country&#45;&gt;Currency</title>
<path fill="none" stroke="black" d="M503.44,-339.63C523.77,-315.6 545.54,-289.86 564.32,-267.66"/>
<polygon fill="black" stroke="black" points="566.86,-270.08 570.65,-260.18 561.52,-265.55 566.86,-270.08"/>
<text text-anchor="middle" x="607.22" y="-281.59" font-family="Times,serif" font-size="14.00">USES_CURRENCY</text>
</g>
<!-- Timezone -->
<g id="node5" class="node">
<title>Timezone</title>
<ellipse fill="none" stroke="black" cx="935.59" cy="-208.42" rx="133.29" ry="51.97"/>
<text text-anchor="middle" x="935.59" y="-227.87" font-family="Times,serif" font-size="14.00">Timezone</text>
<text text-anchor="middle" x="935.59" y="-195.37" font-family="Times,serif" font-size="14.00">properties:</text>
<text text-anchor="middle" x="935.59" y="-178.87" font-family="Times,serif" font-size="14.00">timezones: timezones *unique*</text>
</g>
<!-- Country&#45;&gt;Timezone -->
<g id="edge4" class="edge">
<title>Country&#45;&gt;Timezone</title>
<path fill="none" stroke="black" d="M531.87,-380.54C619.64,-343.34 747.61,-289.1 835.83,-251.7"/>
<polygon fill="black" stroke="black" points="837.15,-254.94 844.99,-247.82 834.42,-248.5 837.15,-254.94"/>
<text text-anchor="middle" x="811.34" y="-281.59" font-family="Times,serif" font-size="14.00">HAS_TIMEZONE</text>
</g>
<!-- Region&#45;&gt;Subregion -->
<g id="edge5" class="edge">
<title>Region&#45;&gt;Subregion</title>
<path fill="none" stroke="black" d="M115.34,-156.62C118.89,-144.94 123.28,-132.77 128.59,-121.94 130.3,-118.45 132.19,-114.95 134.2,-111.48"/>
<polygon fill="black" stroke="black" points="137.1,-113.44 139.35,-103.08 131.14,-109.78 137.1,-113.44"/>
<text text-anchor="middle" x="184.09" y="-125.14" font-family="Times,serif" font-size="14.00">HAS_SUBREGION</text>
</g>
</g>
</svg>
