<?xml version="1.0" encoding="UTF-8" standalone="no"?>
<!DOCTYPE svg PUBLIC "-//W3C//DTD SVG 1.1//EN"
 "http://www.w3.org/Graphics/SVG/1.1/DTD/svg11.dtd">
<!-- Generated by graphviz version 10.0.1 (20240210.2158)
 -->
<!-- Pages: 1 -->
<svg width="2054pt" height="315pt"
 viewBox="0.00 0.00 2053.78 315.06" xmlns="http://www.w3.org/2000/svg" xmlns:xlink="http://www.w3.org/1999/xlink">
<g id="graph0" class="graph" transform="scale(1 1) rotate(0) translate(4 311.06)">
<polygon fill="white" stroke="none" points="-4,4 -4,-311.06 2049.78,-311.06 2049.78,4 -4,4"/>
<!-- Country -->
<g id="node1" class="node">
<title>Country</title>
<ellipse fill="none" stroke="black" cx="1061.05" cy="-243.42" rx="69.65" ry="63.64"/>
<text text-anchor="middle" x="1061.05" y="-271.12" font-family="Times,serif" font-size="14.00">Country</text>
<text text-anchor="middle" x="1061.05" y="-238.62" font-family="Times,serif" font-size="14.00">properties:</text>
<text text-anchor="middle" x="1061.05" y="-222.12" font-family="Times,serif" font-size="14.00">id: id *unique*</text>
<text text-anchor="middle" x="1061.05" y="-205.62" font-family="Times,serif" font-size="14.00">name: name</text>
</g>
<!-- Capital -->
<g id="node2" class="node">
<title>Capital</title>
<ellipse fill="none" stroke="black" cx="129.05" cy="-63.64" rx="129.05" ry="51.97"/>
<text text-anchor="middle" x="129.05" y="-83.09" font-family="Times,serif" font-size="14.00">Capital</text>
<text text-anchor="middle" x="129.05" y="-50.59" font-family="Times,serif" font-size="14.00">properties:</text>
<text text-anchor="middle" x="129.05" y="-34.09" font-family="Times,serif" font-size="14.00">capitalName: capital *unique*</text>
</g>
<!-- Country&#45;&gt;Capital -->
<g id="edge1" class="edge">
<title>Country&#45;&gt;Capital</title>
<path fill="none" stroke="black" d="M991.15,-238.9C851.12,-230.42 527.37,-203.56 267.05,-127.28 251,-122.58 234.4,-116.34 218.53,-109.64"/>
<polygon fill="black" stroke="black" points="220.18,-106.53 209.61,-105.77 217.4,-112.96 220.18,-106.53"/>
<text text-anchor="middle" x="439.42" y="-148.48" font-family="Times,serif" font-size="14.00">HAS_CAPITAL</text>
</g>
<!-- Currency -->
<g id="node3" class="node">
<title>Currency</title>
<ellipse fill="none" stroke="black" cx="447.05" cy="-63.64" rx="170.94" ry="51.97"/>
<text text-anchor="middle" x="447.05" y="-83.09" font-family="Times,serif" font-size="14.00">Currency</text>
<text text-anchor="middle" x="447.05" y="-50.59" font-family="Times,serif" font-size="14.00">properties:</text>
<text text-anchor="middle" x="447.05" y="-34.09" font-family="Times,serif" font-size="14.00">currencyName: currency_name *unique*</text>
</g>
<!-- Country&#45;&gt;Currency -->
<g id="edge2" class="edge">
<title>Country&#45;&gt;Currency</title>
<path fill="none" stroke="black" d="M993.69,-226.23C907.98,-205.24 755.63,-166.65 627.05,-127.28 607.47,-121.29 586.84,-114.53 566.81,-107.73"/>
<polygon fill="black" stroke="black" points="568.11,-104.47 557.51,-104.55 565.84,-111.1 568.11,-104.47"/>
<text text-anchor="middle" x="802.67" y="-148.48" font-family="Times,serif" font-size="14.00">USES_CURRENCY</text>
</g>
<!-- Region -->
<g id="node4" class="node">
<title>Region</title>
<ellipse fill="none" stroke="black" cx="763.05" cy="-63.64" rx="126.93" ry="51.97"/>
<text text-anchor="middle" x="763.05" y="-83.09" font-family="Times,serif" font-size="14.00">Region</text>
<text text-anchor="middle" x="763.05" y="-50.59" font-family="Times,serif" font-size="14.00">properties:</text>
<text text-anchor="middle" x="763.05" y="-34.09" font-family="Times,serif" font-size="14.00">regionName: region *unique*</text>
</g>
<!-- Country&#45;&gt;Region -->
<g id="edge3" class="edge">
<title>Country&#45;&gt;Region</title>
<path fill="none" stroke="black" d="M1000.72,-211.13C973.43,-196.61 940.95,-178.83 912.3,-161.78 887.66,-147.12 861.29,-130.33 837.68,-114.89"/>
<polygon fill="black" stroke="black" points="839.63,-111.98 829.35,-109.42 835.79,-117.83 839.63,-111.98"/>
<text text-anchor="middle" x="985.42" y="-148.48" font-family="Times,serif" font-size="14.00">BELONGS_TO_REGION</text>
</g>
<!-- Subregion -->
<g id="node5" class="node">
<title>Subregion</title>
<ellipse fill="none" stroke="black" cx="1061.05" cy="-63.64" rx="153.44" ry="51.97"/>
<text text-anchor="middle" x="1061.05" y="-83.09" font-family="Times,serif" font-size="14.00">Subregion</text>
<text text-anchor="middle" x="1061.05" y="-50.59" font-family="Times,serif" font-size="14.00">properties:</text>
<text text-anchor="middle" x="1061.05" y="-34.09" font-family="Times,serif" font-size="14.00">subregionName: subregion *unique*</text>
</g>
<!-- Country&#45;&gt;Subregion -->
<g id="edge4" class="edge">
<title>Country&#45;&gt;Subregion</title>
<path fill="none" stroke="black" d="M1061.05,-179.49C1061.05,-162.61 1061.05,-144.36 1061.05,-127.48"/>
<polygon fill="black" stroke="black" points="1064.55,-127.57 1061.05,-117.57 1057.55,-127.57 1064.55,-127.57"/>
<text text-anchor="middle" x="1146.55" y="-148.48" font-family="Times,serif" font-size="14.00">BELONGS_TO_SUBREGION</text>
</g>
<!-- PhoneCode -->
<g id="node6" class="node">
<title>PhoneCode</title>
<ellipse fill="none" stroke="black" cx="1377.05" cy="-63.64" rx="144.43" ry="51.97"/>
<text text-anchor="middle" x="1377.05" y="-83.09" font-family="Times,serif" font-size="14.00">PhoneCode</text>
<text text-anchor="middle" x="1377.05" y="-50.59" font-family="Times,serif" font-size="14.00">properties:</text>
<text text-anchor="middle" x="1377.05" y="-34.09" font-family="Times,serif" font-size="14.00">phoneCode: phone_code *unique*</text>
</g>
<!-- Country&#45;&gt;PhoneCode -->
<g id="edge5" class="edge">
<title>Country&#45;&gt;PhoneCode</title>
<path fill="none" stroke="black" d="M1124.31,-216.4C1158.15,-201.7 1200.14,-182.22 1236.05,-161.78 1259.44,-148.46 1283.93,-132.41 1305.81,-117.22"/>
<polygon fill="black" stroke="black" points="1307.59,-120.25 1313.78,-111.65 1303.58,-114.51 1307.59,-120.25"/>
<text text-anchor="middle" x="1322.17" y="-148.48" font-family="Times,serif" font-size="14.00">HAS_PHONE_CODE</text>
</g>
<!-- Timezone -->
<g id="node7" class="node">
<title>Timezone</title>
<ellipse fill="none" stroke="black" cx="1669.05" cy="-63.64" rx="129.58" ry="51.97"/>
<text text-anchor="middle" x="1669.05" y="-83.09" font-family="Times,serif" font-size="14.00">Timezone</text>
<text text-anchor="middle" x="1669.05" y="-50.59" font-family="Times,serif" font-size="14.00">properties:</text>
<text text-anchor="middle" x="1669.05" y="-34.09" font-family="Times,serif" font-size="14.00">timezone: timezones *unique*</text>
</g>
<!-- Country&#45;&gt;Timezone -->
<g id="edge6" class="edge">
<title>Country&#45;&gt;Timezone</title>
<path fill="none" stroke="black" d="M1129.35,-229.73C1221.66,-211.66 1390.75,-175.32 1530.05,-127.28 1545.54,-121.94 1561.68,-115.51 1577.24,-108.84"/>
<polygon fill="black" stroke="black" points="1578.2,-112.24 1585.97,-105.04 1575.41,-105.82 1578.2,-112.24"/>
<text text-anchor="middle" x="1519.8" y="-148.48" font-family="Times,serif" font-size="14.00">HAS_TIMEZONE</text>
</g>
<!-- Geolocation -->
<g id="node8" class="node">
<title>Geolocation</title>
<ellipse fill="none" stroke="black" cx="1931.05" cy="-63.64" rx="114.73" ry="63.64"/>
<text text-anchor="middle" x="1931.05" y="-91.34" font-family="Times,serif" font-size="14.00">Geolocation</text>
<text text-anchor="middle" x="1931.05" y="-58.84" font-family="Times,serif" font-size="14.00">properties:</text>
<text text-anchor="middle" x="1931.05" y="-42.34" font-family="Times,serif" font-size="14.00">latitude: latitude *key*</text>
<text text-anchor="middle" x="1931.05" y="-25.84" font-family="Times,serif" font-size="14.00">longitude: longitude *key*</text>
</g>
<!-- Country&#45;&gt;Geolocation -->
<g id="edge7" class="edge">
<title>Country&#45;&gt;Geolocation</title>
<path fill="none" stroke="black" d="M1130.97,-239.04C1265.23,-230.95 1567.18,-204.96 1808.05,-127.28 1818.94,-123.77 1830.04,-119.39 1840.9,-114.58"/>
<polygon fill="black" stroke="black" points="1842.21,-117.83 1849.85,-110.49 1839.3,-111.47 1842.21,-117.83"/>
<text text-anchor="middle" x="1794.55" y="-148.48" font-family="Times,serif" font-size="14.00">HAS_GEOLOCATION</text>
</g>
</g>
</svg>
