<?xml version="1.0" encoding="UTF-8" standalone="no"?>
<!DOCTYPE svg PUBLIC "-//W3C//DTD SVG 1.1//EN"
 "http://www.w3.org/Graphics/SVG/1.1/DTD/svg11.dtd">
<!-- Generated by graphviz version 10.0.1 (20240210.2158)
 -->
<!-- Pages: 1 -->
<svg width="568pt" height="675pt"
 viewBox="0.00 0.00 567.68 674.62" xmlns="http://www.w3.org/2000/svg" xmlns:xlink="http://www.w3.org/1999/xlink">
<g id="graph0" class="graph" transform="scale(1 1) rotate(0) translate(4 670.62)">
<polygon fill="white" stroke="none" points="-4,4 -4,-670.62 563.68,-670.62 563.68,4 -4,4"/>
<!-- Person -->
<g id="node1" class="node">
<title>Person</title>
<ellipse fill="none" stroke="black" cx="97.23" cy="-602.98" rx="97.23" ry="63.64"/>
<text text-anchor="middle" x="97.23" y="-630.68" font-family="Times,serif" font-size="14.00">Person</text>
<text text-anchor="middle" x="97.23" y="-598.18" font-family="Times,serif" font-size="14.00">properties:</text>
<text text-anchor="middle" x="97.23" y="-581.68" font-family="Times,serif" font-size="14.00">name: name *unique*</text>
<text text-anchor="middle" x="97.23" y="-565.18" font-family="Times,serif" font-size="14.00">age: age</text>
</g>
<!-- Person&#45;&gt;Person -->
<g id="edge6" class="edge">
<title>Person&#45;&gt;Person</title>
<path fill="none" stroke="black" d="M192.16,-617.75C204.38,-615.19 212.45,-610.26 212.45,-602.98 212.45,-598.2 208.98,-594.43 203.13,-591.69"/>
<polygon fill="black" stroke="black" points="204.19,-588.35 193.6,-588.66 202.07,-595.02 204.19,-588.35"/>
<text text-anchor="middle" x="237.58" y="-597.93" font-family="Times,serif" font-size="14.00">KNOWS</text>
</g>
<!-- Address -->
<g id="node2" class="node">
<title>Address</title>
<ellipse fill="none" stroke="black" cx="97.23" cy="-63.64" rx="83.97" ry="63.64"/>
<text text-anchor="middle" x="97.23" y="-91.34" font-family="Times,serif" font-size="14.00">Address</text>
<text text-anchor="middle" x="97.23" y="-58.84" font-family="Times,serif" font-size="14.00">properties:</text>
<text text-anchor="middle" x="97.23" y="-42.34" font-family="Times,serif" font-size="14.00">city: city *key*</text>
<text text-anchor="middle" x="97.23" y="-25.84" font-family="Times,serif" font-size="14.00">street: street *key*</text>
</g>
<!-- Person&#45;&gt;Address -->
<g id="edge1" class="edge">
<title>Person&#45;&gt;Address</title>
<path fill="none" stroke="black" d="M97.23,-539.02C97.23,-439.29 97.23,-245.38 97.23,-138.97"/>
<polygon fill="black" stroke="black" points="100.73,-139.2 97.23,-129.2 93.73,-139.2 100.73,-139.2"/>
<text text-anchor="middle" x="144.85" y="-328.26" font-family="Times,serif" font-size="14.00">HAS_ADDRESS</text>
</g>
<!-- Pet -->
<g id="node3" class="node">
<title>Pet</title>
<ellipse fill="none" stroke="black" cx="223.23" cy="-423.2" rx="113.67" ry="63.64"/>
<text text-anchor="middle" x="223.23" y="-450.9" font-family="Times,serif" font-size="14.00">Pet</text>
<text text-anchor="middle" x="223.23" y="-418.4" font-family="Times,serif" font-size="14.00">properties:</text>
<text text-anchor="middle" x="223.23" y="-401.9" font-family="Times,serif" font-size="14.00">name: pet_name *unique*</text>
<text text-anchor="middle" x="223.23" y="-385.4" font-family="Times,serif" font-size="14.00">kind: pet</text>
</g>
<!-- Person&#45;&gt;Pet -->
<g id="edge2" class="edge">
<title>Person&#45;&gt;Pet</title>
<path fill="none" stroke="black" d="M137.79,-544.75C149.73,-527.89 162.92,-509.29 175.28,-491.85"/>
<polygon fill="black" stroke="black" points="177.86,-494.26 180.79,-484.08 172.15,-490.22 177.86,-494.26"/>
<text text-anchor="middle" x="193.1" y="-508.04" font-family="Times,serif" font-size="14.00">HAS_PET</text>
</g>
<!-- Toy -->
<g id="node4" class="node">
<title>Toy</title>
<ellipse fill="none" stroke="black" cx="198.23" cy="-243.42" rx="88.21" ry="63.64"/>
<text text-anchor="middle" x="198.23" y="-271.12" font-family="Times,serif" font-size="14.00">Toy</text>
<text text-anchor="middle" x="198.23" y="-238.62" font-family="Times,serif" font-size="14.00">properties:</text>
<text text-anchor="middle" x="198.23" y="-222.12" font-family="Times,serif" font-size="14.00">name: toy *unique*</text>
<text text-anchor="middle" x="198.23" y="-205.62" font-family="Times,serif" font-size="14.00">kind: toy_type</text>
</g>
<!-- Pet&#45;&gt;Toy -->
<g id="edge3" class="edge">
<title>Pet&#45;&gt;Toy</title>
<path fill="none" stroke="black" d="M214.38,-359.27C212.51,-346 210.53,-331.89 208.61,-318.27"/>
<polygon fill="black" stroke="black" points="212.09,-317.88 207.23,-308.46 205.16,-318.85 212.09,-317.88"/>
<text text-anchor="middle" x="254.98" y="-328.26" font-family="Times,serif" font-size="14.00">PLAYS_WITH</text>
</g>
<!-- Shelter -->
<g id="node5" class="node">
<title>Shelter</title>
<ellipse fill="none" stroke="black" cx="432.23" cy="-243.42" rx="127.46" ry="51.97"/>
<text text-anchor="middle" x="432.23" y="-262.87" font-family="Times,serif" font-size="14.00">Shelter</text>
<text text-anchor="middle" x="432.23" y="-230.37" font-family="Times,serif" font-size="14.00">properties:</text>
<text text-anchor="middle" x="432.23" y="-213.87" font-family="Times,serif" font-size="14.00">name: shelter_name *unique*</text>
</g>
<!-- Pet&#45;&gt;Shelter -->
<g id="edge4" class="edge">
<title>Pet&#45;&gt;Shelter</title>
<path fill="none" stroke="black" d="M285.09,-369.58C311.59,-347.04 342.51,-320.74 369.14,-298.08"/>
<polygon fill="black" stroke="black" points="371.13,-300.99 376.48,-291.84 366.59,-295.66 371.13,-300.99"/>
<text text-anchor="middle" x="385.73" y="-328.26" font-family="Times,serif" font-size="14.00">FROM_SHELTER</text>
</g>
<!-- Shelter&#45;&gt;Address -->
<g id="edge5" class="edge">
<title>Shelter&#45;&gt;Address</title>
<path fill="none" stroke="black" d="M355.37,-201.63C301.54,-173.07 229.84,-135.02 175.67,-106.27"/>
<polygon fill="black" stroke="black" points="177.58,-103.32 167.1,-101.72 174.29,-109.5 177.58,-103.32"/>
<text text-anchor="middle" x="321.85" y="-148.48" font-family="Times,serif" font-size="14.00">HAS_ADDRESS</text>
</g>
</g>
</svg>
