<?xml version="1.0" encoding="UTF-8" standalone="no"?>
<!DOCTYPE svg PUBLIC "-//W3C//DTD SVG 1.1//EN"
 "http://www.w3.org/Graphics/SVG/1.1/DTD/svg11.dtd">
<!-- Generated by graphviz version 10.0.1 (20240210.2158)
 -->
<!-- Pages: 1 -->
<svg width="611pt" height="675pt"
 viewBox="0.00 0.00 610.64 674.62" xmlns="http://www.w3.org/2000/svg" xmlns:xlink="http://www.w3.org/1999/xlink">
<g id="graph0" class="graph" transform="scale(1 1) rotate(0) translate(4 670.62)">
<polygon fill="white" stroke="none" points="-4,4 -4,-670.62 606.64,-670.62 606.64,4 -4,4"/>
<!-- Person -->
<g id="node1" class="node">
<title>Person</title>
<ellipse fill="none" stroke="black" cx="140.18" cy="-602.98" rx="140.18" ry="63.64"/>
<text text-anchor="middle" x="140.18" y="-630.68" font-family="Times,serif" font-size="14.00">Person</text>
<text text-anchor="middle" x="140.18" y="-598.18" font-family="Times,serif" font-size="14.00">properties:</text>
<text text-anchor="middle" x="140.18" y="-581.68" font-family="Times,serif" font-size="14.00">name: [&#39;name&#39;, &#39;knows&#39;] *unique*</text>
<text text-anchor="middle" x="140.18" y="-565.18" font-family="Times,serif" font-size="14.00">age: age</text>
</g>
<!-- Person&#45;&gt;Person -->
<g id="edge6" class="edge">
<title>Person&#45;&gt;Person</title>
<path fill="none" stroke="black" d="M277.68,-616.43C290.37,-613.65 298.37,-609.17 298.37,-602.98 298.37,-598.82 294.76,-595.43 288.54,-592.81"/>
<polygon fill="black" stroke="black" points="289.71,-589.51 279.13,-589.96 287.68,-596.21 289.71,-589.51"/>
<text text-anchor="middle" x="323.49" y="-597.93" font-family="Times,serif" font-size="14.00">KNOWS</text>
</g>
<!-- Address -->
<g id="node2" class="node">
<title>Address</title>
<ellipse fill="none" stroke="black" cx="140.18" cy="-63.64" rx="83.97" ry="63.64"/>
<text text-anchor="middle" x="140.18" y="-91.34" font-family="Times,serif" font-size="14.00">Address</text>
<text text-anchor="middle" x="140.18" y="-58.84" font-family="Times,serif" font-size="14.00">properties:</text>
<text text-anchor="middle" x="140.18" y="-42.34" font-family="Times,serif" font-size="14.00">city: city *key*</text>
<text text-anchor="middle" x="140.18" y="-25.84" font-family="Times,serif" font-size="14.00">street: street *key*</text>
</g>
<!-- Person&#45;&gt;Address -->
<g id="edge1" class="edge">
<title>Person&#45;&gt;Address</title>
<path fill="none" stroke="black" d="M140.18,-539.02C140.18,-439.29 140.18,-245.38 140.18,-138.97"/>
<polygon fill="black" stroke="black" points="143.68,-139.2 140.18,-129.2 136.68,-139.2 143.68,-139.2"/>
<text text-anchor="middle" x="187.81" y="-328.26" font-family="Times,serif" font-size="14.00">HAS_ADDRESS</text>
</g>
<!-- Pet -->
<g id="node3" class="node">
<title>Pet</title>
<ellipse fill="none" stroke="black" cx="266.18" cy="-423.2" rx="113.67" ry="63.64"/>
<text text-anchor="middle" x="266.18" y="-450.9" font-family="Times,serif" font-size="14.00">Pet</text>
<text text-anchor="middle" x="266.18" y="-418.4" font-family="Times,serif" font-size="14.00">properties:</text>
<text text-anchor="middle" x="266.18" y="-401.9" font-family="Times,serif" font-size="14.00">name: pet_name *unique*</text>
<text text-anchor="middle" x="266.18" y="-385.4" font-family="Times,serif" font-size="14.00">kind: pet</text>
</g>
<!-- Person&#45;&gt;Pet -->
<g id="edge2" class="edge">
<title>Person&#45;&gt;Pet</title>
<path fill="none" stroke="black" d="M182.49,-542.28C193.95,-526.11 206.44,-508.49 218.19,-491.91"/>
<polygon fill="black" stroke="black" points="220.83,-494.24 223.76,-484.06 215.12,-490.2 220.83,-494.24"/>
<text text-anchor="middle" x="236.06" y="-508.04" font-family="Times,serif" font-size="14.00">HAS_PET</text>
</g>
<!-- Toy -->
<g id="node4" class="node">
<title>Toy</title>
<ellipse fill="none" stroke="black" cx="241.18" cy="-243.42" rx="88.21" ry="63.64"/>
<text text-anchor="middle" x="241.18" y="-271.12" font-family="Times,serif" font-size="14.00">Toy</text>
<text text-anchor="middle" x="241.18" y="-238.62" font-family="Times,serif" font-size="14.00">properties:</text>
<text text-anchor="middle" x="241.18" y="-222.12" font-family="Times,serif" font-size="14.00">name: toy *unique*</text>
<text text-anchor="middle" x="241.18" y="-205.62" font-family="Times,serif" font-size="14.00">kind: toy_type</text>
</g>
<!-- Pet&#45;&gt;Toy -->
<g id="edge3" class="edge">
<title>Pet&#45;&gt;Toy</title>
<path fill="none" stroke="black" d="M257.33,-359.27C255.47,-346 253.48,-331.89 251.57,-318.27"/>
<polygon fill="black" stroke="black" points="255.05,-317.88 250.19,-308.46 248.12,-318.85 255.05,-317.88"/>
<text text-anchor="middle" x="297.93" y="-328.26" font-family="Times,serif" font-size="14.00">PLAYS_WITH</text>
</g>
<!-- Shelter -->
<g id="node5" class="node">
<title>Shelter</title>
<ellipse fill="none" stroke="black" cx="475.18" cy="-243.42" rx="127.46" ry="51.97"/>
<text text-anchor="middle" x="475.18" y="-262.87" font-family="Times,serif" font-size="14.00">Shelter</text>
<text text-anchor="middle" x="475.18" y="-230.37" font-family="Times,serif" font-size="14.00">properties:</text>
<text text-anchor="middle" x="475.18" y="-213.87" font-family="Times,serif" font-size="14.00">name: shelter_name *unique*</text>
</g>
<!-- Pet&#45;&gt;Shelter -->
<g id="edge4" class="edge">
<title>Pet&#45;&gt;Shelter</title>
<path fill="none" stroke="black" d="M328.04,-369.58C354.54,-347.04 385.46,-320.74 412.1,-298.08"/>
<polygon fill="black" stroke="black" points="414.08,-300.99 419.43,-291.84 409.55,-295.66 414.08,-300.99"/>
<text text-anchor="middle" x="428.68" y="-328.26" font-family="Times,serif" font-size="14.00">FROM_SHELTER</text>
</g>
<!-- Shelter&#45;&gt;Address -->
<g id="edge5" class="edge">
<title>Shelter&#45;&gt;Address</title>
<path fill="none" stroke="black" d="M398.33,-201.63C344.5,-173.07 272.8,-135.02 218.62,-106.27"/>
<polygon fill="black" stroke="black" points="220.53,-103.32 210.06,-101.72 217.25,-109.5 220.53,-103.32"/>
<text text-anchor="middle" x="364.81" y="-148.48" font-family="Times,serif" font-size="14.00">HAS_ADDRESS</text>
</g>
</g>
</svg>
