<?xml version="1.0" encoding="UTF-8" standalone="no"?>
<!DOCTYPE svg PUBLIC "-//W3C//DTD SVG 1.1//EN"
 "http://www.w3.org/Graphics/SVG/1.1/DTD/svg11.dtd">
<!-- Generated by graphviz version 10.0.1 (20240210.2158)
 -->
<!-- Pages: 1 -->
<svg width="771pt" height="555pt"
 viewBox="0.00 0.00 771.29 554.77" xmlns="http://www.w3.org/2000/svg" xmlns:xlink="http://www.w3.org/1999/xlink">
<g id="graph0" class="graph" transform="scale(1 1) rotate(0) translate(36 518.77)">
<polygon fill="azure" stroke="none" points="-36,36 -36,-518.77 735.29,-518.77 735.29,36 -36,36"/>
<!-- Person -->
<g id="node1" class="node">
<title>Person</title>
<ellipse fill="#c1cdcd" stroke="black" cx="146.02" cy="-442.11" rx="129.05" ry="40.66"/>
<text text-anchor="middle" x="146.02" y="-453.56" font-family="Times,serif" font-size="14.00">(:Person)</text>
<text text-anchor="start" x="62.77" y="-437.06" font-family="Times,serif" font-size="14.00">* name (name): str | UNIQUE</text>
<text text-anchor="start" x="62.77" y="-420.56" font-family="Times,serif" font-size="14.00">* age (age): int</text>
</g>
<!-- Person&#45;&gt;Person -->
<g id="edge6" class="edge">
<title>Person&#45;&gt;Person</title>
<path fill="none" stroke="black" stroke-width="2" d="M271.25,-452.55C284.54,-450.52 293.06,-447.04 293.06,-442.11 293.06,-438.95 289.56,-436.39 283.56,-434.42"/>
<polygon fill="black" stroke="black" stroke-width="2" points="284.73,-431.1 274.21,-432.33 283.21,-437.93 284.73,-431.1"/>
<text text-anchor="middle" x="332.06" y="-437.06" font-family="Times,serif" font-size="14.00"> &#160;[:KNOWS] &#160;</text>
</g>
<!-- Address -->
<g id="node2" class="node">
<title>Address</title>
<ellipse fill="#c1cdcd" stroke="black" cx="111.02" cy="-40.66" rx="111.02" ry="40.66"/>
<text text-anchor="middle" x="111.02" y="-52.11" font-family="Times,serif" font-size="14.00">(:Address)</text>
<text text-anchor="start" x="40.52" y="-35.61" font-family="Times,serif" font-size="14.00">* city (city): str | KEY</text>
<text text-anchor="start" x="40.52" y="-19.11" font-family="Times,serif" font-size="14.00">* street (street): str | KEY</text>
</g>
<!-- Person&#45;&gt;Address -->
<g id="edge1" class="edge">
<title>Person&#45;&gt;Address</title>
<path fill="none" stroke="black" stroke-width="2" d="M129.1,-401.49C123.1,-385.48 117.09,-366.64 114.02,-348.95 98.66,-260.56 102.18,-155.7 106.41,-94.15"/>
<polygon fill="black" stroke="black" stroke-width="2" points="109.89,-94.57 107.12,-84.34 102.91,-94.06 109.89,-94.57"/>
<text text-anchor="middle" x="165.52" y="-236.33" font-family="Times,serif" font-size="14.00"> &#160;[:HAS_ADDRESS] &#160;</text>
</g>
<!-- Pet -->
<g id="node3" class="node">
<title>Pet</title>
<ellipse fill="#c1cdcd" stroke="black" cx="268.02" cy="-308.29" rx="145.49" ry="40.66"/>
<text text-anchor="middle" x="268.02" y="-319.74" font-family="Times,serif" font-size="14.00">(:Pet)</text>
<text text-anchor="start" x="173.14" y="-303.24" font-family="Times,serif" font-size="14.00">* name (pet_name): str | UNIQUE</text>
<text text-anchor="start" x="173.14" y="-286.74" font-family="Times,serif" font-size="14.00">* kind (pet): str</text>
</g>
<!-- Person&#45;&gt;Pet -->
<g id="edge2" class="edge">
<title>Person&#45;&gt;Pet</title>
<path fill="none" stroke="black" stroke-width="2" d="M181.63,-402.63C194.67,-388.54 209.59,-372.42 223.32,-357.58"/>
<polygon fill="black" stroke="black" stroke-width="2" points="225.86,-359.99 230.09,-350.27 220.73,-355.23 225.86,-359.99"/>
<text text-anchor="middle" x="256.77" y="-370.15" font-family="Times,serif" font-size="14.00"> &#160;[:HAS_PET] &#160;</text>
</g>
<!-- Toy -->
<g id="node4" class="node">
<title>Toy</title>
<ellipse fill="#c1cdcd" stroke="black" cx="243.02" cy="-174.48" rx="120.03" ry="40.66"/>
<text text-anchor="middle" x="243.02" y="-185.93" font-family="Times,serif" font-size="14.00">(:Toy)</text>
<text text-anchor="start" x="166.14" y="-169.43" font-family="Times,serif" font-size="14.00">* name (toy): str | UNIQUE</text>
<text text-anchor="start" x="166.14" y="-152.93" font-family="Times,serif" font-size="14.00">* kind (toy_type): str</text>
</g>
<!-- Pet&#45;&gt;Toy -->
<g id="edge3" class="edge">
<title>Pet&#45;&gt;Toy</title>
<path fill="none" stroke="black" stroke-width="2" d="M260.45,-267.39C258.1,-255 255.47,-241.15 252.98,-228.03"/>
<polygon fill="black" stroke="black" stroke-width="2" points="256.42,-227.39 251.12,-218.22 249.55,-228.7 256.42,-227.39"/>
<text text-anchor="middle" x="312.64" y="-236.33" font-family="Times,serif" font-size="14.00"> &#160;[:PLAYS_WITH] &#160;</text>
</g>
<!-- Shelter -->
<g id="node5" class="node">
<title>Shelter</title>
<ellipse fill="#c1cdcd" stroke="black" cx="540.02" cy="-174.48" rx="159.28" ry="28.99"/>
<text text-anchor="middle" x="540.02" y="-177.68" font-family="Times,serif" font-size="14.00">(:Shelter)</text>
<text text-anchor="start" x="435.39" y="-161.18" font-family="Times,serif" font-size="14.00">* name (shelter_name): str | UNIQUE</text>
</g>
<!-- Pet&#45;&gt;Shelter -->
<g id="edge4" class="edge">
<title>Pet&#45;&gt;Shelter</title>
<path fill="none" stroke="black" stroke-width="2" d="M339.84,-272.49C381.24,-252.42 432.93,-227.37 473.42,-207.75"/>
<polygon fill="black" stroke="black" stroke-width="2" points="474.86,-210.94 482.33,-203.43 471.81,-204.64 474.86,-210.94"/>
<text text-anchor="middle" x="486.39" y="-236.33" font-family="Times,serif" font-size="14.00"> &#160;[:FROM_SHELTER] &#160;</text>
</g>
<!-- Shelter&#45;&gt;Address -->
<g id="edge5" class="edge">
<title>Shelter&#45;&gt;Address</title>
<path fill="none" stroke="black" stroke-width="2" d="M460.33,-148.99C388.83,-127.02 283.72,-94.73 207.49,-71.3"/>
<polygon fill="black" stroke="black" stroke-width="2" points="208.52,-67.96 197.93,-68.37 206.46,-74.65 208.52,-67.96"/>
<text text-anchor="middle" x="412.52" y="-102.52" font-family="Times,serif" font-size="14.00"> &#160;[:HAS_ADDRESS] &#160;</text>
</g>
</g>
</svg>
