<?xml version="1.0" encoding="UTF-8" standalone="no"?>
<!DOCTYPE svg PUBLIC "-//W3C//DTD SVG 1.1//EN"
 "http://www.w3.org/Graphics/SVG/1.1/DTD/svg11.dtd">
<!-- Generated by graphviz version 10.0.1 (20240210.2158)
 -->
<!-- Pages: 1 -->
<svg width="994pt" height="362pt"
 viewBox="0.00 0.00 993.93 361.73" xmlns="http://www.w3.org/2000/svg" xmlns:xlink="http://www.w3.org/1999/xlink">
<g id="graph0" class="graph" transform="scale(1 1) rotate(0) translate(4 357.73)">
<polygon fill="white" stroke="none" points="-4,4 -4,-357.73 989.93,-357.73 989.93,4 -4,4"/>
<!-- Country -->
<g id="node1" class="node">
<title>Country</title>
<ellipse fill="none" stroke="black" cx="512.26" cy="-255.09" rx="106.24" ry="98.64"/>
<text text-anchor="middle" x="512.26" y="-307.54" font-family="Times,serif" font-size="14.00">Country</text>
<text text-anchor="middle" x="512.26" y="-275.04" font-family="Times,serif" font-size="14.00">properties:</text>
<text text-anchor="middle" x="512.26" y="-258.54" font-family="Times,serif" font-size="14.00">id: id *unique*</text>
<text text-anchor="middle" x="512.26" y="-242.04" font-family="Times,serif" font-size="14.00">name: name</text>
<text text-anchor="middle" x="512.26" y="-225.54" font-family="Times,serif" font-size="14.00">phoneCode: phone_code</text>
<text text-anchor="middle" x="512.26" y="-209.04" font-family="Times,serif" font-size="14.00">latitude: latitude</text>
<text text-anchor="middle" x="512.26" y="-192.54" font-family="Times,serif" font-size="14.00">longitude: longitude</text>
</g>
<!-- Capital -->
<g id="node2" class="node">
<title>Capital</title>
<ellipse fill="none" stroke="black" cx="639.26" cy="-51.97" rx="101.47" ry="51.97"/>
<text text-anchor="middle" x="639.26" y="-71.42" font-family="Times,serif" font-size="14.00">Capital</text>
<text text-anchor="middle" x="639.26" y="-38.92" font-family="Times,serif" font-size="14.00">properties:</text>
<text text-anchor="middle" x="639.26" y="-22.42" font-family="Times,serif" font-size="14.00">name: capital *unique*</text>
</g>
<!-- Country&#45;&gt;Capital -->
<g id="edge1" class="edge">
<title>Country&#45;&gt;Capital</title>
<path fill="none" stroke="black" d="M565.75,-169.38C578.1,-149.81 590.98,-129.43 602.43,-111.29"/>
<polygon fill="black" stroke="black" points="605.27,-113.34 607.65,-103.02 599.36,-109.61 605.27,-113.34"/>
<text text-anchor="middle" x="639.63" y="-125.14" font-family="Times,serif" font-size="14.00">HAS_CAPITAL</text>
</g>
<!-- Currency -->
<g id="node3" class="node">
<title>Currency</title>
<ellipse fill="none" stroke="black" cx="384.26" cy="-51.97" rx="135.41" ry="51.97"/>
<text text-anchor="middle" x="384.26" y="-71.42" font-family="Times,serif" font-size="14.00">Currency</text>
<text text-anchor="middle" x="384.26" y="-38.92" font-family="Times,serif" font-size="14.00">properties:</text>
<text text-anchor="middle" x="384.26" y="-22.42" font-family="Times,serif" font-size="14.00">name: currency_name *unique*</text>
</g>
<!-- Country&#45;&gt;Currency -->
<g id="edge2" class="edge">
<title>Country&#45;&gt;Currency</title>
<path fill="none" stroke="black" d="M458.53,-169.67C446.18,-150.26 433.3,-130.03 421.81,-111.97"/>
<polygon fill="black" stroke="black" points="425.07,-110.58 416.75,-104.02 419.17,-114.34 425.07,-110.58"/>
<text text-anchor="middle" x="492.88" y="-125.14" font-family="Times,serif" font-size="14.00">USES_CURRENCY</text>
</g>
<!-- Subregion -->
<g id="node5" class="node">
<title>Subregion</title>
<ellipse fill="none" stroke="black" cx="872.26" cy="-51.97" rx="113.67" ry="51.97"/>
<text text-anchor="middle" x="872.26" y="-71.42" font-family="Times,serif" font-size="14.00">Subregion</text>
<text text-anchor="middle" x="872.26" y="-38.92" font-family="Times,serif" font-size="14.00">properties:</text>
<text text-anchor="middle" x="872.26" y="-22.42" font-family="Times,serif" font-size="14.00">name: subregion *unique*</text>
</g>
<!-- Country&#45;&gt;Subregion -->
<g id="edge3" class="edge">
<title>Country&#45;&gt;Subregion</title>
<path fill="none" stroke="black" d="M603.1,-203.34C660.97,-171.01 735.29,-129.49 791.16,-98.28"/>
<polygon fill="black" stroke="black" points="792.68,-101.44 799.7,-93.51 789.26,-95.33 792.68,-101.44"/>
<text text-anchor="middle" x="774.51" y="-125.14" font-family="Times,serif" font-size="14.00">PART_OF</text>
</g>
<!-- Timezone -->
<g id="node6" class="node">
<title>Timezone</title>
<ellipse fill="none" stroke="black" cx="115.26" cy="-51.97" rx="115.26" ry="51.97"/>
<text text-anchor="middle" x="115.26" y="-71.42" font-family="Times,serif" font-size="14.00">Timezone</text>
<text text-anchor="middle" x="115.26" y="-38.92" font-family="Times,serif" font-size="14.00">properties:</text>
<text text-anchor="middle" x="115.26" y="-22.42" font-family="Times,serif" font-size="14.00">name: timezones *unique*</text>
</g>
<!-- Country&#45;&gt;Timezone -->
<g id="edge4" class="edge">
<title>Country&#45;&gt;Timezone</title>
<path fill="none" stroke="black" d="M419.18,-206.93C353.26,-173.54 265.5,-129.08 201.23,-96.53"/>
<polygon fill="black" stroke="black" points="202.98,-93.49 192.48,-92.09 199.82,-99.73 202.98,-93.49"/>
<text text-anchor="middle" x="330.01" y="-125.14" font-family="Times,serif" font-size="14.00">HAS_TIMEZONE</text>
</g>
<!-- Region -->
<g id="node4" class="node">
<title>Region</title>
<ellipse fill="none" stroke="black" cx="872.26" cy="-255.09" rx="100.41" ry="51.97"/>
<text text-anchor="middle" x="872.26" y="-274.54" font-family="Times,serif" font-size="14.00">Region</text>
<text text-anchor="middle" x="872.26" y="-242.04" font-family="Times,serif" font-size="14.00">properties:</text>
<text text-anchor="middle" x="872.26" y="-225.54" font-family="Times,serif" font-size="14.00">name: region *unique*</text>
</g>
<!-- Region&#45;&gt;Subregion -->
<g id="edge5" class="edge">
<title>Region&#45;&gt;Subregion</title>
<path fill="none" stroke="black" d="M872.26,-202.82C872.26,-176.22 872.26,-143.52 872.26,-115.46"/>
<polygon fill="black" stroke="black" points="875.76,-115.66 872.26,-105.66 868.76,-115.66 875.76,-115.66"/>
<text text-anchor="middle" x="927.76" y="-125.14" font-family="Times,serif" font-size="14.00">HAS_SUBREGION</text>
</g>
</g>
</svg>
