<?xml version="1.0" encoding="UTF-8" standalone="no"?>
<!DOCTYPE svg PUBLIC "-//W3C//DTD SVG 1.1//EN"
 "http://www.w3.org/Graphics/SVG/1.1/DTD/svg11.dtd">
<!-- Generated by graphviz version 10.0.1 (20240210.2158)
 -->
<!-- Pages: 1 -->
<svg width="1061pt" height="292pt"
 viewBox="0.00 0.00 1060.82 291.72" xmlns="http://www.w3.org/2000/svg" xmlns:xlink="http://www.w3.org/1999/xlink">
<g id="graph0" class="graph" transform="scale(1 1) rotate(0) translate(4 287.72)">
<polygon fill="white" stroke="none" points="-4,4 -4,-287.72 1056.82,-287.72 1056.82,4 -4,4"/>
<!-- Country -->
<g id="node1" class="node">
<title>Country</title>
<ellipse fill="none" stroke="black" cx="577.71" cy="-220.08" rx="69.65" ry="63.64"/>
<text text-anchor="middle" x="577.71" y="-247.78" font-family="Times,serif" font-size="14.00">Country</text>
<text text-anchor="middle" x="577.71" y="-215.28" font-family="Times,serif" font-size="14.00">properties:</text>
<text text-anchor="middle" x="577.71" y="-198.78" font-family="Times,serif" font-size="14.00">id: id *unique*</text>
<text text-anchor="middle" x="577.71" y="-182.28" font-family="Times,serif" font-size="14.00">name: name</text>
</g>
<!-- Capital -->
<g id="node2" class="node">
<title>Capital</title>
<ellipse fill="none" stroke="black" cx="105.71" cy="-51.97" rx="105.71" ry="51.97"/>
<text text-anchor="middle" x="105.71" y="-71.42" font-family="Times,serif" font-size="14.00">Capital</text>
<text text-anchor="middle" x="105.71" y="-38.92" font-family="Times,serif" font-size="14.00">properties:</text>
<text text-anchor="middle" x="105.71" y="-22.42" font-family="Times,serif" font-size="14.00">capital: capital *unique*</text>
</g>
<!-- Country&#45;&gt;Capital -->
<g id="edge1" class="edge">
<title>Country&#45;&gt;Capital</title>
<path fill="none" stroke="black" d="M511.31,-200.1C438.86,-178.84 319.85,-142.3 219.71,-103.94 210.74,-100.51 201.46,-96.73 192.24,-92.84"/>
<polygon fill="black" stroke="black" points="193.84,-89.72 183.27,-89 191.09,-96.16 193.84,-89.72"/>
<text text-anchor="middle" x="353.09" y="-125.14" font-family="Times,serif" font-size="14.00">HAS_CAPITAL</text>
</g>
<!-- Currency -->
<g id="node3" class="node">
<title>Currency</title>
<ellipse fill="none" stroke="black" cx="361.71" cy="-51.97" rx="132.76" ry="51.97"/>
<text text-anchor="middle" x="361.71" y="-71.42" font-family="Times,serif" font-size="14.00">Currency</text>
<text text-anchor="middle" x="361.71" y="-38.92" font-family="Times,serif" font-size="14.00">properties:</text>
<text text-anchor="middle" x="361.71" y="-22.42" font-family="Times,serif" font-size="14.00">currencyName: currency_name</text>
</g>
<!-- Country&#45;&gt;Currency -->
<g id="edge2" class="edge">
<title>Country&#45;&gt;Currency</title>
<path fill="none" stroke="black" d="M521.34,-182.17C501.73,-168.85 479.82,-153.4 460.46,-138.44 447.93,-128.76 434.88,-117.99 422.53,-107.45"/>
<polygon fill="black" stroke="black" points="425.12,-105.06 415.25,-101.2 420.55,-110.37 425.12,-105.06"/>
<text text-anchor="middle" x="517.34" y="-125.14" font-family="Times,serif" font-size="14.00">USES_CURRENCY</text>
</g>
<!-- Region -->
<g id="node4" class="node">
<title>Region</title>
<ellipse fill="none" stroke="black" cx="577.71" cy="-51.97" rx="65.41" ry="51.97"/>
<text text-anchor="middle" x="577.71" y="-71.42" font-family="Times,serif" font-size="14.00">Region</text>
<text text-anchor="middle" x="577.71" y="-38.92" font-family="Times,serif" font-size="14.00">properties:</text>
<text text-anchor="middle" x="577.71" y="-22.42" font-family="Times,serif" font-size="14.00">region: region</text>
</g>
<!-- Country&#45;&gt;Region -->
<g id="edge3" class="edge">
<title>Country&#45;&gt;Region</title>
<path fill="none" stroke="black" d="M577.71,-156.28C577.71,-143 577.71,-128.97 577.71,-115.69"/>
<polygon fill="black" stroke="black" points="581.21,-115.75 577.71,-105.75 574.21,-115.75 581.21,-115.75"/>
<text text-anchor="middle" x="647.84" y="-125.14" font-family="Times,serif" font-size="14.00">LOCATED_IN_REGION</text>
</g>
<!-- Subregion -->
<g id="node5" class="node">
<title>Subregion</title>
<ellipse fill="none" stroke="black" cx="752.71" cy="-51.97" rx="91.92" ry="51.97"/>
<text text-anchor="middle" x="752.71" y="-71.42" font-family="Times,serif" font-size="14.00">Subregion</text>
<text text-anchor="middle" x="752.71" y="-38.92" font-family="Times,serif" font-size="14.00">properties:</text>
<text text-anchor="middle" x="752.71" y="-22.42" font-family="Times,serif" font-size="14.00">subregion: subregion</text>
</g>
<!-- Country&#45;&gt;Subregion -->
<g id="edge4" class="edge">
<title>Country&#45;&gt;Subregion</title>
<path fill="none" stroke="black" d="M641.96,-195.16C669.7,-182.06 700.57,-163.34 721.71,-138.44 727.81,-131.27 732.75,-122.79 736.74,-114.02"/>
<polygon fill="black" stroke="black" points="739.86,-115.62 740.42,-105.04 733.39,-112.96 739.86,-115.62"/>
<text text-anchor="middle" x="803.96" y="-125.14" font-family="Times,serif" font-size="14.00">PART_OF_SUBREGION</text>
</g>
<!-- Timezone -->
<g id="node6" class="node">
<title>Timezone</title>
<ellipse fill="none" stroke="black" cx="957.71" cy="-51.97" rx="95.11" ry="51.97"/>
<text text-anchor="middle" x="957.71" y="-71.42" font-family="Times,serif" font-size="14.00">Timezone</text>
<text text-anchor="middle" x="957.71" y="-38.92" font-family="Times,serif" font-size="14.00">properties:</text>
<text text-anchor="middle" x="957.71" y="-22.42" font-family="Times,serif" font-size="14.00">timezones: timezones</text>
</g>
<!-- Country&#45;&gt;Timezone -->
<g id="edge5" class="edge">
<title>Country&#45;&gt;Timezone</title>
<path fill="none" stroke="black" d="M647.15,-211.86C711.35,-202.67 807.48,-182.33 879.71,-138.44 892.7,-130.55 904.82,-119.86 915.45,-108.72"/>
<polygon fill="black" stroke="black" points="917.73,-111.41 921.9,-101.67 912.57,-106.69 917.73,-111.41"/>
<text text-anchor="middle" x="951.46" y="-125.14" font-family="Times,serif" font-size="14.00">HAS_TIMEZONE</text>
</g>
</g>
</svg>
